<svg xmlns="http://www.w3.org/2000/svg" xmlns:xlink="http://www.w3.org/1999/xlink" width="195" zoomAndPan="magnify" viewBox="0 0 146.25 140.249994" height="187" preserveAspectRatio="xMidYMid meet" version="1.0"><defs><g/><clipPath id="6cd7e1b0ac"><path d="M 20 23 L 133 23 L 133 129 L 20 129 Z M 20 23 " clip-rule="nonzero"/></clipPath><clipPath id="63a46a7024"><path d="M 41.722656 139.101562 L -0.0273438 46.632812 L 103.324219 -0.03125 L 145.070312 92.441406 Z M 41.722656 139.101562 " clip-rule="nonzero"/></clipPath><clipPath id="bf9a231832"><path d="M 41.722656 139.101562 L -0.0273438 46.632812 L 103.324219 -0.03125 L 145.070312 92.441406 Z M 41.722656 139.101562 " clip-rule="nonzero"/></clipPath><clipPath id="f0c7decd63"><path d="M 41.722656 139.101562 L -0.0273438 46.632812 L 103.324219 -0.03125 L 145.070312 92.441406 Z M 41.722656 139.101562 " clip-rule="nonzero"/></clipPath><clipPath id="c137bf0cec"><path d="M 16 21 L 131 21 L 131 128 L 16 128 Z M 16 21 " clip-rule="nonzero"/></clipPath><clipPath id="bc6873c21b"><path d="M 41.722656 139.101562 L -0.0273438 46.632812 L 103.324219 -0.03125 L 145.070312 92.441406 Z M 41.722656 139.101562 " clip-rule="nonzero"/></clipPath><clipPath id="a07aafbbf3"><path d="M 41.722656 139.101562 L -0.0273438 46.632812 L 103.324219 -0.03125 L 145.070312 92.441406 Z M 41.722656 139.101562 " clip-rule="nonzero"/></clipPath><clipPath id="36999559be"><path d="M 41.722656 139.101562 L -0.0273438 46.632812 L 103.324219 -0.03125 L 145.070312 92.441406 Z M 41.722656 139.101562 " clip-rule="nonzero"/></clipPath><clipPath id="99cc5c968e"><path d="M 57 117 L 60 117 L 60 120 L 57 120 Z M 57 117 " clip-rule="nonzero"/></clipPath><clipPath id="03f50a3038"><path d="M 41.722656 139.101562 L -0.0273438 46.632812 L 103.324219 -0.03125 L 145.070312 92.441406 Z M 41.722656 139.101562 " clip-rule="nonzero"/></clipPath><clipPath id="5bbd654894"><path d="M 41.722656 139.101562 L -0.0273438 46.632812 L 103.324219 -0.03125 L 145.070312 92.441406 Z M 41.722656 139.101562 " clip-rule="nonzero"/></clipPath><clipPath id="25015bf6b4"><path d="M 41.722656 139.101562 L -0.0273438 46.632812 L 103.324219 -0.03125 L 145.070312 92.441406 Z M 41.722656 139.101562 " clip-rule="nonzero"/></clipPath><clipPath id="87e324ca26"><path d="M 57 118 L 68 118 L 68 128 L 57 128 Z M 57 118 " clip-rule="nonzero"/></clipPath><clipPath id="d40d7a9239"><path d="M 41.722656 139.101562 L -0.0273438 46.632812 L 103.324219 -0.03125 L 145.070312 92.441406 Z M 41.722656 139.101562 " clip-rule="nonzero"/></clipPath><clipPath id="b9ca480dff"><path d="M 41.722656 139.101562 L -0.0273438 46.632812 L 103.324219 -0.03125 L 145.070312 92.441406 Z M 41.722656 139.101562 " clip-rule="nonzero"/></clipPath><clipPath id="3cb01504c5"><path d="M 41.722656 139.101562 L -0.0273438 46.632812 L 103.324219 -0.03125 L 145.070312 92.441406 Z M 41.722656 139.101562 " clip-rule="nonzero"/></clipPath><clipPath id="7c27ad3021"><path d="M 64 111 L 68 111 L 68 114 L 64 114 Z M 64 111 " clip-rule="nonzero"/></clipPath><clipPath id="82da4f8e3a"><path d="M 41.722656 139.101562 L -0.0273438 46.632812 L 103.324219 -0.03125 L 145.070312 92.441406 Z M 41.722656 139.101562 " clip-rule="nonzero"/></clipPath><clipPath id="7a1a42f5c8"><path d="M 41.722656 139.101562 L -0.0273438 46.632812 L 103.324219 -0.03125 L 145.070312 92.441406 Z M 41.722656 139.101562 " clip-rule="nonzero"/></clipPath><clipPath id="b545a24f18"><path d="M 41.722656 139.101562 L -0.0273438 46.632812 L 103.324219 -0.03125 L 145.070312 92.441406 Z M 41.722656 139.101562 " clip-rule="nonzero"/></clipPath><clipPath id="da15f7a15f"><path d="M 64 112 L 75 112 L 75 123 L 64 123 Z M 64 112 " clip-rule="nonzero"/></clipPath><clipPath id="d268c0d364"><path d="M 41.722656 139.101562 L -0.0273438 46.632812 L 103.324219 -0.03125 L 145.070312 92.441406 Z M 41.722656 139.101562 " clip-rule="nonzero"/></clipPath><clipPath id="250a2ec6ce"><path d="M 41.722656 139.101562 L -0.0273438 46.632812 L 103.324219 -0.03125 L 145.070312 92.441406 Z M 41.722656 139.101562 " clip-rule="nonzero"/></clipPath><clipPath id="cefd3620b5"><path d="M 41.722656 139.101562 L -0.0273438 46.632812 L 103.324219 -0.03125 L 145.070312 92.441406 Z M 41.722656 139.101562 " clip-rule="nonzero"/></clipPath><clipPath id="9cff3f732b"><path d="M 70 105 L 74 105 L 74 109 L 70 109 Z M 70 105 " clip-rule="nonzero"/></clipPath><clipPath id="c2f910c968"><path d="M 41.722656 139.101562 L -0.0273438 46.632812 L 103.324219 -0.03125 L 145.070312 92.441406 Z M 41.722656 139.101562 " clip-rule="nonzero"/></clipPath><clipPath id="173fb8a751"><path d="M 41.722656 139.101562 L -0.0273438 46.632812 L 103.324219 -0.03125 L 145.070312 92.441406 Z M 41.722656 139.101562 " clip-rule="nonzero"/></clipPath><clipPath id="7421e6283f"><path d="M 41.722656 139.101562 L -0.0273438 46.632812 L 103.324219 -0.03125 L 145.070312 92.441406 Z M 41.722656 139.101562 " clip-rule="nonzero"/></clipPath><clipPath id="7c11df700f"><path d="M 71 106 L 82 106 L 82 117 L 71 117 Z M 71 106 " clip-rule="nonzero"/></clipPath><clipPath id="436d39c896"><path d="M 41.722656 139.101562 L -0.0273438 46.632812 L 103.324219 -0.03125 L 145.070312 92.441406 Z M 41.722656 139.101562 " clip-rule="nonzero"/></clipPath><clipPath id="ceb4f6ba49"><path d="M 41.722656 139.101562 L -0.0273438 46.632812 L 103.324219 -0.03125 L 145.070312 92.441406 Z M 41.722656 139.101562 " clip-rule="nonzero"/></clipPath><clipPath id="c2434f0f8c"><path d="M 41.722656 139.101562 L -0.0273438 46.632812 L 103.324219 -0.03125 L 145.070312 92.441406 Z M 41.722656 139.101562 " clip-rule="nonzero"/></clipPath><clipPath id="2ef2cc26e9"><path d="M 76 100 L 80 100 L 80 104 L 76 104 Z M 76 100 " clip-rule="nonzero"/></clipPath><clipPath id="48688c7bec"><path d="M 41.722656 139.101562 L -0.0273438 46.632812 L 103.324219 -0.03125 L 145.070312 92.441406 Z M 41.722656 139.101562 " clip-rule="nonzero"/></clipPath><clipPath id="d8b6225d2d"><path d="M 41.722656 139.101562 L -0.0273438 46.632812 L 103.324219 -0.03125 L 145.070312 92.441406 Z M 41.722656 139.101562 " clip-rule="nonzero"/></clipPath><clipPath id="db1131033f"><path d="M 41.722656 139.101562 L -0.0273438 46.632812 L 103.324219 -0.03125 L 145.070312 92.441406 Z M 41.722656 139.101562 " clip-rule="nonzero"/></clipPath><clipPath id="3ea556c638"><path d="M 77 101 L 88 101 L 88 112 L 77 112 Z M 77 101 " clip-rule="nonzero"/></clipPath><clipPath id="c88f868f73"><path d="M 41.722656 139.101562 L -0.0273438 46.632812 L 103.324219 -0.03125 L 145.070312 92.441406 Z M 41.722656 139.101562 " clip-rule="nonzero"/></clipPath><clipPath id="4e2616fcf3"><path d="M 41.722656 139.101562 L -0.0273438 46.632812 L 103.324219 -0.03125 L 145.070312 92.441406 Z M 41.722656 139.101562 " clip-rule="nonzero"/></clipPath><clipPath id="ae2e493234"><path d="M 41.722656 139.101562 L -0.0273438 46.632812 L 103.324219 -0.03125 L 145.070312 92.441406 Z M 41.722656 139.101562 " clip-rule="nonzero"/></clipPath><clipPath id="1490523dd7"><path d="M 83 94 L 87 94 L 87 98 L 83 98 Z M 83 94 " clip-rule="nonzero"/></clipPath><clipPath id="7a13a631be"><path d="M 41.722656 139.101562 L -0.0273438 46.632812 L 103.324219 -0.03125 L 145.070312 92.441406 Z M 41.722656 139.101562 " clip-rule="nonzero"/></clipPath><clipPath id="7a0e39db0f"><path d="M 41.722656 139.101562 L -0.0273438 46.632812 L 103.324219 -0.03125 L 145.070312 92.441406 Z M 41.722656 139.101562 " clip-rule="nonzero"/></clipPath><clipPath id="4868a4c358"><path d="M 41.722656 139.101562 L -0.0273438 46.632812 L 103.324219 -0.03125 L 145.070312 92.441406 Z M 41.722656 139.101562 " clip-rule="nonzero"/></clipPath><clipPath id="22d5322c4e"><path d="M 84 95 L 95 95 L 95 106 L 84 106 Z M 84 95 " clip-rule="nonzero"/></clipPath><clipPath id="f565a5c6fe"><path d="M 41.722656 139.101562 L -0.0273438 46.632812 L 103.324219 -0.03125 L 145.070312 92.441406 Z M 41.722656 139.101562 " clip-rule="nonzero"/></clipPath><clipPath id="89678b6ecf"><path d="M 41.722656 139.101562 L -0.0273438 46.632812 L 103.324219 -0.03125 L 145.070312 92.441406 Z M 41.722656 139.101562 " clip-rule="nonzero"/></clipPath><clipPath id="cd1d97f04e"><path d="M 41.722656 139.101562 L -0.0273438 46.632812 L 103.324219 -0.03125 L 145.070312 92.441406 Z M 41.722656 139.101562 " clip-rule="nonzero"/></clipPath><clipPath id="f6e91753ce"><path d="M 90 89 L 94 89 L 94 92 L 90 92 Z M 90 89 " clip-rule="nonzero"/></clipPath><clipPath id="62404457f5"><path d="M 41.722656 139.101562 L -0.0273438 46.632812 L 103.324219 -0.03125 L 145.070312 92.441406 Z M 41.722656 139.101562 " clip-rule="nonzero"/></clipPath><clipPath id="c8d9f9e90c"><path d="M 41.722656 139.101562 L -0.0273438 46.632812 L 103.324219 -0.03125 L 145.070312 92.441406 Z M 41.722656 139.101562 " clip-rule="nonzero"/></clipPath><clipPath id="f5d300bdde"><path d="M 41.722656 139.101562 L -0.0273438 46.632812 L 103.324219 -0.03125 L 145.070312 92.441406 Z M 41.722656 139.101562 " clip-rule="nonzero"/></clipPath><clipPath id="a7d7326dbd"><path d="M 91 90 L 103 90 L 103 99 L 91 99 Z M 91 90 " clip-rule="nonzero"/></clipPath><clipPath id="e2384860b6"><path d="M 41.722656 139.101562 L -0.0273438 46.632812 L 103.324219 -0.03125 L 145.070312 92.441406 Z M 41.722656 139.101562 " clip-rule="nonzero"/></clipPath><clipPath id="ca4384e63d"><path d="M 41.722656 139.101562 L -0.0273438 46.632812 L 103.324219 -0.03125 L 145.070312 92.441406 Z M 41.722656 139.101562 " clip-rule="nonzero"/></clipPath><clipPath id="df9c275f57"><path d="M 41.722656 139.101562 L -0.0273438 46.632812 L 103.324219 -0.03125 L 145.070312 92.441406 Z M 41.722656 139.101562 " clip-rule="nonzero"/></clipPath><clipPath id="0eaeffa2c5"><path d="M 97 83 L 101 83 L 101 86 L 97 86 Z M 97 83 " clip-rule="nonzero"/></clipPath><clipPath id="a9e96d3b60"><path d="M 41.722656 139.101562 L -0.0273438 46.632812 L 103.324219 -0.03125 L 145.070312 92.441406 Z M 41.722656 139.101562 " clip-rule="nonzero"/></clipPath><clipPath id="cbd6d2801d"><path d="M 41.722656 139.101562 L -0.0273438 46.632812 L 103.324219 -0.03125 L 145.070312 92.441406 Z M 41.722656 139.101562 " clip-rule="nonzero"/></clipPath><clipPath id="68ac7071bf"><path d="M 41.722656 139.101562 L -0.0273438 46.632812 L 103.324219 -0.03125 L 145.070312 92.441406 Z M 41.722656 139.101562 " clip-rule="nonzero"/></clipPath><clipPath id="7135475b87"><path d="M 98 84 L 110 84 L 110 93 L 98 93 Z M 98 84 " clip-rule="nonzero"/></clipPath><clipPath id="8c213c9ab4"><path d="M 41.722656 139.101562 L -0.0273438 46.632812 L 103.324219 -0.03125 L 145.070312 92.441406 Z M 41.722656 139.101562 " clip-rule="nonzero"/></clipPath><clipPath id="d08b4a8dff"><path d="M 41.722656 139.101562 L -0.0273438 46.632812 L 103.324219 -0.03125 L 145.070312 92.441406 Z M 41.722656 139.101562 " clip-rule="nonzero"/></clipPath><clipPath id="6de31fa0b1"><path d="M 41.722656 139.101562 L -0.0273438 46.632812 L 103.324219 -0.03125 L 145.070312 92.441406 Z M 41.722656 139.101562 " clip-rule="nonzero"/></clipPath><clipPath id="e52e95703b"><path d="M 104 77 L 107 77 L 107 81 L 104 81 Z M 104 77 " clip-rule="nonzero"/></clipPath><clipPath id="b2a699ad6b"><path d="M 41.722656 139.101562 L -0.0273438 46.632812 L 103.324219 -0.03125 L 145.070312 92.441406 Z M 41.722656 139.101562 " clip-rule="nonzero"/></clipPath><clipPath id="24e5ac9d4e"><path d="M 41.722656 139.101562 L -0.0273438 46.632812 L 103.324219 -0.03125 L 145.070312 92.441406 Z M 41.722656 139.101562 " clip-rule="nonzero"/></clipPath><clipPath id="e8223a7f62"><path d="M 41.722656 139.101562 L -0.0273438 46.632812 L 103.324219 -0.03125 L 145.070312 92.441406 Z M 41.722656 139.101562 " clip-rule="nonzero"/></clipPath><clipPath id="705645d64e"><path d="M 104 78 L 116 78 L 116 87 L 104 87 Z M 104 78 " clip-rule="nonzero"/></clipPath><clipPath id="c8d9e8b044"><path d="M 41.722656 139.101562 L -0.0273438 46.632812 L 103.324219 -0.03125 L 145.070312 92.441406 Z M 41.722656 139.101562 " clip-rule="nonzero"/></clipPath><clipPath id="376e9f738a"><path d="M 41.722656 139.101562 L -0.0273438 46.632812 L 103.324219 -0.03125 L 145.070312 92.441406 Z M 41.722656 139.101562 " clip-rule="nonzero"/></clipPath><clipPath id="75c8156fa7"><path d="M 41.722656 139.101562 L -0.0273438 46.632812 L 103.324219 -0.03125 L 145.070312 92.441406 Z M 41.722656 139.101562 " clip-rule="nonzero"/></clipPath><clipPath id="97624b8bfb"><path d="M 111 72 L 114 72 L 114 76 L 111 76 Z M 111 72 " clip-rule="nonzero"/></clipPath><clipPath id="de489d502c"><path d="M 41.722656 139.101562 L -0.0273438 46.632812 L 103.324219 -0.03125 L 145.070312 92.441406 Z M 41.722656 139.101562 " clip-rule="nonzero"/></clipPath><clipPath id="63f257a18d"><path d="M 41.722656 139.101562 L -0.0273438 46.632812 L 103.324219 -0.03125 L 145.070312 92.441406 Z M 41.722656 139.101562 " clip-rule="nonzero"/></clipPath><clipPath id="b20e589cd0"><path d="M 41.722656 139.101562 L -0.0273438 46.632812 L 103.324219 -0.03125 L 145.070312 92.441406 Z M 41.722656 139.101562 " clip-rule="nonzero"/></clipPath><clipPath id="ef206a6d1a"><path d="M 112 73 L 124 73 L 124 81 L 112 81 Z M 112 73 " clip-rule="nonzero"/></clipPath><clipPath id="8406c420f2"><path d="M 41.722656 139.101562 L -0.0273438 46.632812 L 103.324219 -0.03125 L 145.070312 92.441406 Z M 41.722656 139.101562 " clip-rule="nonzero"/></clipPath><clipPath id="bc0b2a93f7"><path d="M 41.722656 139.101562 L -0.0273438 46.632812 L 103.324219 -0.03125 L 145.070312 92.441406 Z M 41.722656 139.101562 " clip-rule="nonzero"/></clipPath><clipPath id="ad76fee6ac"><path d="M 41.722656 139.101562 L -0.0273438 46.632812 L 103.324219 -0.03125 L 145.070312 92.441406 Z M 41.722656 139.101562 " clip-rule="nonzero"/></clipPath><clipPath id="e71e70806a"><path d="M 117 67 L 121 67 L 121 70 L 117 70 Z M 117 67 " clip-rule="nonzero"/></clipPath><clipPath id="cecbc58ef4"><path d="M 41.722656 139.101562 L -0.0273438 46.632812 L 103.324219 -0.03125 L 145.070312 92.441406 Z M 41.722656 139.101562 " clip-rule="nonzero"/></clipPath><clipPath id="435cfae09c"><path d="M 41.722656 139.101562 L -0.0273438 46.632812 L 103.324219 -0.03125 L 145.070312 92.441406 Z M 41.722656 139.101562 " clip-rule="nonzero"/></clipPath><clipPath id="58ed3cd372"><path d="M 41.722656 139.101562 L -0.0273438 46.632812 L 103.324219 -0.03125 L 145.070312 92.441406 Z M 41.722656 139.101562 " clip-rule="nonzero"/></clipPath><clipPath id="61f4167864"><path d="M 118 68 L 131 68 L 131 75 L 118 75 Z M 118 68 " clip-rule="nonzero"/></clipPath><clipPath id="5400b9ab6e"><path d="M 41.722656 139.101562 L -0.0273438 46.632812 L 103.324219 -0.03125 L 145.070312 92.441406 Z M 41.722656 139.101562 " clip-rule="nonzero"/></clipPath><clipPath id="c9098f0783"><path d="M 41.722656 139.101562 L -0.0273438 46.632812 L 103.324219 -0.03125 L 145.070312 92.441406 Z M 41.722656 139.101562 " clip-rule="nonzero"/></clipPath><clipPath id="6eb81cdaaa"><path d="M 41.722656 139.101562 L -0.0273438 46.632812 L 103.324219 -0.03125 L 145.070312 92.441406 Z M 41.722656 139.101562 " clip-rule="nonzero"/></clipPath><clipPath id="9f7b37a2a0"><path d="M 22 79 L 57 79 L 57 117 L 22 117 Z M 22 79 " clip-rule="nonzero"/></clipPath><clipPath id="b8c1e19606"><path d="M 41.722656 139.101562 L -0.0273438 46.632812 L 103.324219 -0.03125 L 145.070312 92.441406 Z M 41.722656 139.101562 " clip-rule="nonzero"/></clipPath><clipPath id="2f3224ca1e"><path d="M 41.722656 139.101562 L -0.0273438 46.632812 L 103.324219 -0.03125 L 145.070312 92.441406 Z M 41.722656 139.101562 " clip-rule="nonzero"/></clipPath><clipPath id="2a5f542f59"><path d="M 41.722656 139.101562 L -0.0273438 46.632812 L 103.324219 -0.03125 L 145.070312 92.441406 Z M 41.722656 139.101562 " clip-rule="nonzero"/></clipPath><clipPath id="7b277405bb"><path d="M 26 75 L 61 75 L 61 113 L 26 113 Z M 26 75 " clip-rule="nonzero"/></clipPath><clipPath id="7802210642"><path d="M 41.722656 139.101562 L -0.0273438 46.632812 L 103.324219 -0.03125 L 145.070312 92.441406 Z M 41.722656 139.101562 " clip-rule="nonzero"/></clipPath><clipPath id="5a30b90cc5"><path d="M 41.722656 139.101562 L -0.0273438 46.632812 L 103.324219 -0.03125 L 145.070312 92.441406 Z M 41.722656 139.101562 " clip-rule="nonzero"/></clipPath><clipPath id="cdf8565d42"><path d="M 41.722656 139.101562 L -0.0273438 46.632812 L 103.324219 -0.03125 L 145.070312 92.441406 Z M 41.722656 139.101562 " clip-rule="nonzero"/></clipPath><clipPath id="a4f76cdf9e"><path d="M 31 72 L 66 72 L 66 109 L 31 109 Z M 31 72 " clip-rule="nonzero"/></clipPath><clipPath id="34625157f0"><path d="M 41.722656 139.101562 L -0.0273438 46.632812 L 103.324219 -0.03125 L 145.070312 92.441406 Z M 41.722656 139.101562 " clip-rule="nonzero"/></clipPath><clipPath id="0cec297180"><path d="M 41.722656 139.101562 L -0.0273438 46.632812 L 103.324219 -0.03125 L 145.070312 92.441406 Z M 41.722656 139.101562 " clip-rule="nonzero"/></clipPath><clipPath id="81c4321e1b"><path d="M 41.722656 139.101562 L -0.0273438 46.632812 L 103.324219 -0.03125 L 145.070312 92.441406 Z M 41.722656 139.101562 " clip-rule="nonzero"/></clipPath><clipPath id="bd0decebbe"><path d="M 82 28 L 117 28 L 117 65 L 82 65 Z M 82 28 " clip-rule="nonzero"/></clipPath><clipPath id="42941c0813"><path d="M 41.722656 139.101562 L -0.0273438 46.632812 L 103.324219 -0.03125 L 145.070312 92.441406 Z M 41.722656 139.101562 " clip-rule="nonzero"/></clipPath><clipPath id="210fdf3171"><path d="M 41.722656 139.101562 L -0.0273438 46.632812 L 103.324219 -0.03125 L 145.070312 92.441406 Z M 41.722656 139.101562 " clip-rule="nonzero"/></clipPath><clipPath id="c5fc725c0e"><path d="M 41.722656 139.101562 L -0.0273438 46.632812 L 103.324219 -0.03125 L 145.070312 92.441406 Z M 41.722656 139.101562 " clip-rule="nonzero"/></clipPath><clipPath id="f115cd56dd"><path d="M 36 67 L 71 67 L 71 105 L 36 105 Z M 36 67 " clip-rule="nonzero"/></clipPath><clipPath id="61bd61a754"><path d="M 41.722656 139.101562 L -0.0273438 46.632812 L 103.324219 -0.03125 L 145.070312 92.441406 Z M 41.722656 139.101562 " clip-rule="nonzero"/></clipPath><clipPath id="2b36d525ab"><path d="M 41.722656 139.101562 L -0.0273438 46.632812 L 103.324219 -0.03125 L 145.070312 92.441406 Z M 41.722656 139.101562 " clip-rule="nonzero"/></clipPath><clipPath id="b11a2f864d"><path d="M 41.722656 139.101562 L -0.0273438 46.632812 L 103.324219 -0.03125 L 145.070312 92.441406 Z M 41.722656 139.101562 " clip-rule="nonzero"/></clipPath><clipPath id="5570a03231"><path d="M 40 63 L 76 63 L 76 101 L 40 101 Z M 40 63 " clip-rule="nonzero"/></clipPath><clipPath id="d687a18751"><path d="M 41.722656 139.101562 L -0.0273438 46.632812 L 103.324219 -0.03125 L 145.070312 92.441406 Z M 41.722656 139.101562 " clip-rule="nonzero"/></clipPath><clipPath id="a376e526f4"><path d="M 41.722656 139.101562 L -0.0273438 46.632812 L 103.324219 -0.03125 L 145.070312 92.441406 Z M 41.722656 139.101562 " clip-rule="nonzero"/></clipPath><clipPath id="70d7f8aae6"><path d="M 41.722656 139.101562 L -0.0273438 46.632812 L 103.324219 -0.03125 L 145.070312 92.441406 Z M 41.722656 139.101562 " clip-rule="nonzero"/></clipPath><clipPath id="fbc4ca59a0"><path d="M 46 59 L 81 59 L 81 97 L 46 97 Z M 46 59 " clip-rule="nonzero"/></clipPath><clipPath id="9d0dceaa83"><path d="M 41.722656 139.101562 L -0.0273438 46.632812 L 103.324219 -0.03125 L 145.070312 92.441406 Z M 41.722656 139.101562 " clip-rule="nonzero"/></clipPath><clipPath id="860c384358"><path d="M 41.722656 139.101562 L -0.0273438 46.632812 L 103.324219 -0.03125 L 145.070312 92.441406 Z M 41.722656 139.101562 " clip-rule="nonzero"/></clipPath><clipPath id="97c3af61a2"><path d="M 41.722656 139.101562 L -0.0273438 46.632812 L 103.324219 -0.03125 L 145.070312 92.441406 Z M 41.722656 139.101562 " clip-rule="nonzero"/></clipPath><clipPath id="4524d58e16"><path d="M 77 32 L 112 32 L 112 70 L 77 70 Z M 77 32 " clip-rule="nonzero"/></clipPath><clipPath id="1dfbdc8765"><path d="M 41.722656 139.101562 L -0.0273438 46.632812 L 103.324219 -0.03125 L 145.070312 92.441406 Z M 41.722656 139.101562 " clip-rule="nonzero"/></clipPath><clipPath id="8d6ffd5df3"><path d="M 41.722656 139.101562 L -0.0273438 46.632812 L 103.324219 -0.03125 L 145.070312 92.441406 Z M 41.722656 139.101562 " clip-rule="nonzero"/></clipPath><clipPath id="3f1678a3df"><path d="M 41.722656 139.101562 L -0.0273438 46.632812 L 103.324219 -0.03125 L 145.070312 92.441406 Z M 41.722656 139.101562 " clip-rule="nonzero"/></clipPath><clipPath id="4cf0895bf7"><path d="M 51 54 L 86 54 L 86 92 L 51 92 Z M 51 54 " clip-rule="nonzero"/></clipPath><clipPath id="9a02498170"><path d="M 41.722656 139.101562 L -0.0273438 46.632812 L 103.324219 -0.03125 L 145.070312 92.441406 Z M 41.722656 139.101562 " clip-rule="nonzero"/></clipPath><clipPath id="d5eb2e912d"><path d="M 41.722656 139.101562 L -0.0273438 46.632812 L 103.324219 -0.03125 L 145.070312 92.441406 Z M 41.722656 139.101562 " clip-rule="nonzero"/></clipPath><clipPath id="e27665f99a"><path d="M 41.722656 139.101562 L -0.0273438 46.632812 L 103.324219 -0.03125 L 145.070312 92.441406 Z M 41.722656 139.101562 " clip-rule="nonzero"/></clipPath><clipPath id="aff1733d84"><path d="M 56 50 L 91 50 L 91 88 L 56 88 Z M 56 50 " clip-rule="nonzero"/></clipPath><clipPath id="0a79d7797e"><path d="M 41.722656 139.101562 L -0.0273438 46.632812 L 103.324219 -0.03125 L 145.070312 92.441406 Z M 41.722656 139.101562 " clip-rule="nonzero"/></clipPath><clipPath id="d43c07fe4d"><path d="M 41.722656 139.101562 L -0.0273438 46.632812 L 103.324219 -0.03125 L 145.070312 92.441406 Z M 41.722656 139.101562 " clip-rule="nonzero"/></clipPath><clipPath id="cc9005d918"><path d="M 41.722656 139.101562 L -0.0273438 46.632812 L 103.324219 -0.03125 L 145.070312 92.441406 Z M 41.722656 139.101562 " clip-rule="nonzero"/></clipPath><clipPath id="38dd72afc8"><path d="M 61 45 L 96 45 L 96 84 L 61 84 Z M 61 45 " clip-rule="nonzero"/></clipPath><clipPath id="2214fc4319"><path d="M 41.722656 139.101562 L -0.0273438 46.632812 L 103.324219 -0.03125 L 145.070312 92.441406 Z M 41.722656 139.101562 " clip-rule="nonzero"/></clipPath><clipPath id="27c14aa1eb"><path d="M 41.722656 139.101562 L -0.0273438 46.632812 L 103.324219 -0.03125 L 145.070312 92.441406 Z M 41.722656 139.101562 " clip-rule="nonzero"/></clipPath><clipPath id="070242b97a"><path d="M 41.722656 139.101562 L -0.0273438 46.632812 L 103.324219 -0.03125 L 145.070312 92.441406 Z M 41.722656 139.101562 " clip-rule="nonzero"/></clipPath><clipPath id="3303ad3d20"><path d="M 66 41 L 101 41 L 101 79 L 66 79 Z M 66 41 " clip-rule="nonzero"/></clipPath><clipPath id="f00b5763be"><path d="M 41.722656 139.101562 L -0.0273438 46.632812 L 103.324219 -0.03125 L 145.070312 92.441406 Z M 41.722656 139.101562 " clip-rule="nonzero"/></clipPath><clipPath id="66a0c3bc1d"><path d="M 41.722656 139.101562 L -0.0273438 46.632812 L 103.324219 -0.03125 L 145.070312 92.441406 Z M 41.722656 139.101562 " clip-rule="nonzero"/></clipPath><clipPath id="157b3a5b71"><path d="M 41.722656 139.101562 L -0.0273438 46.632812 L 103.324219 -0.03125 L 145.070312 92.441406 Z M 41.722656 139.101562 " clip-rule="nonzero"/></clipPath><clipPath id="32a343a258"><path d="M 71 37 L 106 37 L 106 75 L 71 75 Z M 71 37 " clip-rule="nonzero"/></clipPath><clipPath id="d1775a6abf"><path d="M 41.722656 139.101562 L -0.0273438 46.632812 L 103.324219 -0.03125 L 145.070312 92.441406 Z M 41.722656 139.101562 " clip-rule="nonzero"/></clipPath><clipPath id="fd8c53c900"><path d="M 41.722656 139.101562 L -0.0273438 46.632812 L 103.324219 -0.03125 L 145.070312 92.441406 Z M 41.722656 139.101562 " clip-rule="nonzero"/></clipPath><clipPath id="a1ef49f63e"><path d="M 41.722656 139.101562 L -0.0273438 46.632812 L 103.324219 -0.03125 L 145.070312 92.441406 Z M 41.722656 139.101562 " clip-rule="nonzero"/></clipPath><clipPath id="a9027ddae9"><path d="M 68 35 L 79 35 L 79 43 L 68 43 Z M 68 35 " clip-rule="nonzero"/></clipPath><clipPath id="3315dab867"><path d="M 41.722656 139.101562 L -0.0273438 46.632812 L 103.324219 -0.03125 L 145.070312 92.441406 Z M 41.722656 139.101562 " clip-rule="nonzero"/></clipPath><clipPath id="a9220a62cc"><path d="M 41.722656 139.101562 L -0.0273438 46.632812 L 103.324219 -0.03125 L 145.070312 92.441406 Z M 41.722656 139.101562 " clip-rule="nonzero"/></clipPath><clipPath id="0e6c88a989"><path d="M 41.722656 139.101562 L -0.0273438 46.632812 L 103.324219 -0.03125 L 145.070312 92.441406 Z M 41.722656 139.101562 " clip-rule="nonzero"/></clipPath><clipPath id="5771ba4ec2"><path d="M 76 37 L 79 37 L 79 40 L 76 40 Z M 76 37 " clip-rule="nonzero"/></clipPath><clipPath id="3dbbfa4b50"><path d="M 41.722656 139.101562 L -0.0273438 46.632812 L 103.324219 -0.03125 L 145.070312 92.441406 Z M 41.722656 139.101562 " clip-rule="nonzero"/></clipPath><clipPath id="70aa9aa456"><path d="M 41.722656 139.101562 L -0.0273438 46.632812 L 103.324219 -0.03125 L 145.070312 92.441406 Z M 41.722656 139.101562 " clip-rule="nonzero"/></clipPath><clipPath id="82166145a5"><path d="M 41.722656 139.101562 L -0.0273438 46.632812 L 103.324219 -0.03125 L 145.070312 92.441406 Z M 41.722656 139.101562 " clip-rule="nonzero"/></clipPath><clipPath id="c394cda377"><path d="M 22 34 L 70 34 L 70 44 L 22 44 Z M 22 34 " clip-rule="nonzero"/></clipPath><clipPath id="01fe11e9ee"><path d="M 41.722656 139.101562 L -0.0273438 46.632812 L 103.324219 -0.03125 L 145.070312 92.441406 Z M 41.722656 139.101562 " clip-rule="nonzero"/></clipPath><clipPath id="5a267b0dc6"><path d="M 41.722656 139.101562 L -0.0273438 46.632812 L 103.324219 -0.03125 L 145.070312 92.441406 Z M 41.722656 139.101562 " clip-rule="nonzero"/></clipPath><clipPath id="ecb580283a"><path d="M 41.722656 139.101562 L -0.0273438 46.632812 L 103.324219 -0.03125 L 145.070312 92.441406 Z M 41.722656 139.101562 " clip-rule="nonzero"/></clipPath></defs><g clip-path="url(#6cd7e1b0ac)"><g clip-path="url(#63a46a7024)"><g clip-path="url(#bf9a231832)"><g clip-path="url(#f0c7decd63)"><path fill="#ecc776" d="M 84.621094 25.480469 C 82.402344 27.328125 80.308594 29.316406 78.109375 31.1875 C 72.191406 36.34375 66.480469 41.707031 60.21875 46.457031 C 54.050781 51.429688 47.902344 56.445312 42.246094 62.003906 C 38.566406 65.636719 34.4375 68.785156 30.648438 72.300781 C 27.988281 74.703125 25.117188 76.859375 22.488281 79.289062 C 21.433594 80.351562 20.257812 81.667969 20.359375 83.265625 C 20.621094 84.886719 21.964844 86.058594 22.890625 87.335938 C 25.816406 90.933594 28.542969 94.695312 31.722656 98.078125 C 36.636719 103.714844 41.003906 109.808594 46.019531 115.371094 C 47.539062 117.128906 48.769531 119.121094 50.292969 120.871094 C 51.707031 122.335938 53.050781 123.925781 54.648438 125.203125 C 55.367188 125.777344 56.605469 126.570312 57.167969 126.878906 C 59.191406 127.992188 61.34375 129.25 63.824219 127.554688 C 70.582031 123.144531 76.328125 117.351562 82.46875 112.140625 C 94.929688 100.472656 108.148438 89.671875 120.988281 78.425781 C 122.007812 77.546875 123.042969 76.691406 124.066406 75.816406 C 124.21875 75.695312 129.582031 71.367188 131.84375 69.007812 C 132.792969 67.894531 133.207031 66.175781 132.324219 64.90625 C 130.839844 62.996094 129.542969 60.9375 127.972656 59.09375 C 125.839844 56.839844 124.511719 55.847656 122.59375 53.652344 C 119.226562 50.269531 116.132812 46.640625 112.855469 43.175781 C 108.25 38.445312 103.882812 34.644531 99.511719 30.042969 C 97.074219 27.6875 94.859375 24.4375 91.429688 23.566406 C 90.117188 23.257812 88.792969 23.683594 87.496094 23.882812 C 87.046875 23.984375 86.527344 24.011719 86.1875 24.339844 C 85.621094 24.625 85.113281 25.15625 84.621094 25.480469 Z M 84.621094 25.480469 " fill-opacity="1" fill-rule="nonzero"/></g></g></g></g><g clip-path="url(#c137bf0cec)"><g clip-path="url(#bc6873c21b)"><g clip-path="url(#a07aafbbf3)"><g clip-path="url(#36999559be)"><path fill="#eeeae1" d="M 76.691406 28.945312 C 72.074219 32.929688 67.597656 37.074219 63.042969 41.132812 C 57.464844 46.132812 51.660156 50.863281 45.953125 55.710938 C 39.5625 61.328125 33.199219 66.976562 26.632812 72.390625 C 23.355469 75.226562 19.921875 77.902344 16.792969 80.898438 C 16.042969 81.9375 16.523438 83.28125 17.167969 84.253906 C 18.070312 85.824219 21.441406 89.628906 21.582031 89.796875 C 28.457031 97.855469 36.457031 104.910156 42.929688 113.324219 C 45.730469 116.785156 48.449219 120.3125 51.382812 123.660156 C 55.148438 128 55.9375 127.542969 57.640625 127.652344 C 58.644531 127.714844 59.828125 127.695312 60.179688 127.480469 C 63 125.789062 67.457031 121.726562 70.101562 119.523438 C 77.953125 112.695312 85.792969 105.402344 93.832031 98.792969 C 104.246094 90.144531 113.898438 82.246094 124.085938 73.324219 C 130.183594 67.757812 133.117188 68.464844 126.699219 60.8125 C 117.484375 50.078125 106.476562 39.636719 96.847656 29.296875 C 94.628906 26.820312 92.105469 24.703125 90.082031 22.070312 C 89.378906 21.082031 86.628906 21.449219 85.710938 22.050781 C 82.394531 23.902344 79.5625 26.484375 76.691406 28.945312 Z M 76.691406 28.945312 " fill-opacity="1" fill-rule="nonzero"/></g></g></g></g><g clip-path="url(#99cc5c968e)"><g clip-path="url(#03f50a3038)"><g clip-path="url(#5bbd654894)"><g clip-path="url(#25015bf6b4)"><path fill="#9e844f" d="M 57.175781 118.632812 C 57.3125 119.929688 59.300781 120.257812 59.789062 119.023438 C 60.0625 118.40625 59.832031 117.832031 59.417969 117.496094 C 58.554688 116.558594 57.027344 117.363281 57.175781 118.632812 Z M 57.175781 118.632812 " fill-opacity="1" fill-rule="nonzero"/></g></g></g></g><g clip-path="url(#87e324ca26)"><g clip-path="url(#d40d7a9239)"><g clip-path="url(#b9ca480dff)"><g clip-path="url(#3cb01504c5)"><path fill="#9e844f" d="M 58.882812 118.867188 C 58.210938 120.375 58.269531 122.246094 59.285156 123.71875 C 60.148438 124.964844 61.84375 126.140625 63.335938 126.667969 C 63.738281 126.800781 64.121094 126.910156 64.46875 126.953125 C 64.542969 126.960938 64.628906 126.964844 64.699219 126.964844 C 65.847656 126.992188 66.546875 126.457031 66.679688 125.5625 C 66.960938 125.367188 67.234375 125.152344 67.519531 124.945312 C 67.539062 125.023438 67.546875 125.101562 67.550781 125.179688 C 67.6875 127.179688 66.054688 128.089844 64.265625 127.808594 C 64.066406 127.761719 63.867188 127.710938 63.664062 127.648438 C 62.402344 127.285156 61.140625 126.59375 60.054688 125.695312 C 59.625 125.320312 59.214844 124.917969 58.863281 124.484375 C 57.496094 122.808594 57.316406 120.503906 57.941406 118.757812 C 58.226562 117.578125 59.238281 118.3125 58.882812 118.867188 Z M 58.882812 118.867188 " fill-opacity="1" fill-rule="nonzero"/></g></g></g></g><g clip-path="url(#7c27ad3021)"><g clip-path="url(#82da4f8e3a)"><g clip-path="url(#7a1a42f5c8)"><g clip-path="url(#b545a24f18)"><path fill="#9e844f" d="M 64.570312 112.839844 C 64.703125 114.136719 66.691406 114.460938 67.179688 113.230469 C 67.457031 112.609375 67.226562 112.039062 66.808594 111.699219 C 65.945312 110.765625 64.417969 111.570312 64.570312 112.839844 Z M 64.570312 112.839844 " fill-opacity="1" fill-rule="nonzero"/></g></g></g></g><g clip-path="url(#da15f7a15f)"><g clip-path="url(#d268c0d364)"><g clip-path="url(#250a2ec6ce)"><g clip-path="url(#cefd3620b5)"><path fill="#9e844f" d="M 66.273438 113.070312 C 65.601562 114.582031 65.660156 116.453125 66.675781 117.925781 C 67.542969 119.171875 69.234375 120.34375 70.726562 120.871094 C 71.128906 121.007812 71.515625 121.113281 71.863281 121.15625 C 71.976562 121.164062 72.089844 121.167969 72.199219 121.167969 C 73.375 121.160156 74.066406 120.539062 74.09375 119.515625 C 74.351562 119.289062 74.617188 119.066406 74.867188 118.828125 C 74.914062 119.007812 74.9375 119.199219 74.945312 119.382812 C 75.078125 121.382812 73.445312 122.289062 71.660156 122.011719 C 71.53125 121.988281 71.414062 121.957031 71.289062 121.917969 C 69.953125 121.570312 68.59375 120.859375 67.445312 119.898438 C 67.015625 119.523438 66.609375 119.121094 66.253906 118.6875 C 64.890625 117.011719 64.710938 114.707031 65.335938 112.960938 C 65.617188 111.78125 66.632812 112.519531 66.273438 113.070312 Z M 66.273438 113.070312 " fill-opacity="1" fill-rule="nonzero"/></g></g></g></g><g clip-path="url(#9cff3f732b)"><g clip-path="url(#c2f910c968)"><g clip-path="url(#173fb8a751)"><g clip-path="url(#7421e6283f)"><path fill="#9e844f" d="M 70.664062 107.128906 C 70.800781 108.429688 72.789062 108.753906 73.277344 107.519531 C 73.554688 106.902344 73.320312 106.328125 72.90625 105.992188 C 72.042969 105.054688 70.515625 105.863281 70.664062 107.128906 Z M 70.664062 107.128906 " fill-opacity="1" fill-rule="nonzero"/></g></g></g></g><g clip-path="url(#7c11df700f)"><g clip-path="url(#436d39c896)"><g clip-path="url(#ceb4f6ba49)"><g clip-path="url(#c2434f0f8c)"><path fill="#9e844f" d="M 72.371094 107.367188 C 71.699219 108.875 71.757812 110.742188 72.773438 112.21875 C 73.640625 113.464844 75.335938 114.636719 76.824219 115.164062 C 77.226562 115.300781 77.613281 115.410156 77.960938 115.449219 C 78.226562 115.476562 78.476562 115.46875 78.695312 115.433594 C 79.503906 115.320312 80.027344 114.855469 80.160156 114.136719 C 80.441406 113.890625 80.726562 113.640625 81 113.398438 C 81.027344 113.484375 81.03125 113.578125 81.042969 113.679688 C 81.175781 115.679688 79.542969 116.585938 77.757812 116.304688 C 77.742188 116.304688 77.742188 116.304688 77.726562 116.300781 C 76.28125 115.988281 74.796875 115.238281 73.546875 114.195312 C 73.117188 113.820312 72.707031 113.414062 72.351562 112.980469 C 70.984375 111.304688 70.804688 109 71.429688 107.253906 C 71.714844 106.074219 72.730469 106.8125 72.371094 107.367188 Z M 72.371094 107.367188 " fill-opacity="1" fill-rule="nonzero"/></g></g></g></g><g clip-path="url(#2ef2cc26e9)"><g clip-path="url(#48688c7bec)"><g clip-path="url(#d8b6225d2d)"><g clip-path="url(#db1131033f)"><path fill="#9e844f" d="M 76.949219 102.324219 C 77.171875 103.609375 79.179688 103.796875 79.582031 102.535156 C 79.8125 101.898438 79.542969 101.34375 79.105469 101.035156 C 78.179688 100.164062 76.710938 101.070312 76.949219 102.324219 Z M 76.949219 102.324219 " fill-opacity="1" fill-rule="nonzero"/></g></g></g></g><g clip-path="url(#3ea556c638)"><g clip-path="url(#c88f868f73)"><g clip-path="url(#4e2616fcf3)"><g clip-path="url(#ae2e493234)"><path fill="#9e844f" d="M 78.664062 102.433594 C 78.101562 103.996094 78.289062 105.855469 79.398438 107.257812 C 80.347656 108.441406 82.117188 109.5 83.644531 109.917969 C 84 110.019531 84.335938 110.085938 84.644531 110.117188 C 84.6875 110.121094 84.742188 110.121094 84.789062 110.125 C 86.296875 110.15625 87.054688 109.332031 86.871094 108.070312 C 87.113281 107.855469 87.351562 107.636719 87.578125 107.421875 C 87.671875 107.664062 87.71875 107.898438 87.75 108.148438 C 88.015625 110.125 86.445312 111.152344 84.65625 111 C 84.390625 110.957031 84.121094 110.910156 83.863281 110.839844 C 82.636719 110.542969 81.398438 109.96875 80.316406 109.179688 C 79.855469 108.832031 79.414062 108.460938 79.027344 108.054688 C 77.558594 106.472656 77.21875 104.1875 77.714844 102.402344 C 77.925781 101.191406 78.976562 101.859375 78.664062 102.433594 Z M 78.664062 102.433594 " fill-opacity="1" fill-rule="nonzero"/></g></g></g></g><g clip-path="url(#1490523dd7)"><g clip-path="url(#7a13a631be)"><g clip-path="url(#7a0e39db0f)"><g clip-path="url(#4868a4c358)"><path fill="#9e844f" d="M 83.753906 96.335938 C 83.980469 97.621094 85.984375 97.808594 86.386719 96.546875 C 86.621094 95.910156 86.351562 95.355469 85.910156 95.046875 C 84.988281 94.171875 83.519531 95.082031 83.753906 96.335938 Z M 83.753906 96.335938 " fill-opacity="1" fill-rule="nonzero"/></g></g></g></g><g clip-path="url(#22d5322c4e)"><g clip-path="url(#f565a5c6fe)"><g clip-path="url(#89678b6ecf)"><g clip-path="url(#cd1d97f04e)"><path fill="#9e844f" d="M 85.46875 96.445312 C 84.902344 98.003906 85.09375 99.867188 86.199219 101.269531 C 87.152344 102.449219 88.929688 103.503906 90.445312 103.925781 C 90.742188 104.011719 91.019531 104.066406 91.28125 104.105469 C 91.386719 104.117188 91.492188 104.128906 91.589844 104.136719 C 93.117188 104.15625 93.894531 103.300781 93.667969 102 C 93.898438 101.792969 94.132812 101.585938 94.367188 101.382812 C 94.460938 101.636719 94.511719 101.898438 94.550781 102.15625 C 94.816406 104.132812 93.257812 105.152344 91.453125 105.007812 C 91.132812 104.960938 90.808594 104.898438 90.492188 104.804688 C 89.316406 104.5 88.140625 103.941406 87.113281 103.1875 C 86.652344 102.839844 86.222656 102.464844 85.835938 102.058594 C 84.351562 100.476562 84.023438 98.191406 84.523438 96.40625 C 84.730469 95.203125 85.789062 95.863281 85.46875 96.445312 Z M 85.46875 96.445312 " fill-opacity="1" fill-rule="nonzero"/></g></g></g></g><g clip-path="url(#f6e91753ce)"><g clip-path="url(#62404457f5)"><g clip-path="url(#c8d9f9e90c)"><g clip-path="url(#f5d300bdde)"><path fill="#9e844f" d="M 90.976562 90.835938 C 91.328125 92.09375 93.339844 92.078125 93.617188 90.777344 C 93.785156 90.121094 93.460938 89.59375 92.992188 89.332031 C 91.984375 88.558594 90.617188 89.609375 90.976562 90.835938 Z M 90.976562 90.835938 " fill-opacity="1" fill-rule="nonzero"/></g></g></g></g><g clip-path="url(#a7d7326dbd)"><g clip-path="url(#e2384860b6)"><g clip-path="url(#ca4384e63d)"><g clip-path="url(#df9c275f57)"><path fill="#9e844f" d="M 92.699219 90.777344 C 92.292969 92.382812 92.660156 94.210938 93.914062 95.5 C 94.976562 96.582031 96.84375 97.453125 98.402344 97.722656 C 98.445312 97.726562 98.5 97.742188 98.542969 97.746094 L 98.550781 97.742188 C 98.914062 97.800781 99.253906 97.820312 99.5625 97.8125 C 101.15625 97.667969 101.824219 96.679688 101.363281 95.304688 C 101.578125 95.125 101.796875 94.9375 102.027344 94.742188 C 102.152344 95.003906 102.242188 95.273438 102.308594 95.535156 C 102.769531 97.484375 101.316406 98.660156 99.511719 98.683594 C 98.933594 98.660156 98.355469 98.582031 97.757812 98.429688 C 96.820312 98.207031 95.882812 97.824219 95.011719 97.320312 C 94.519531 97.023438 94.054688 96.6875 93.621094 96.328125 C 92 94.898438 91.433594 92.660156 91.746094 90.828125 C 91.832031 89.613281 92.957031 90.164062 92.699219 90.777344 Z M 92.699219 90.777344 " fill-opacity="1" fill-rule="nonzero"/></g></g></g></g><g clip-path="url(#0eaeffa2c5)"><g clip-path="url(#a9e96d3b60)"><g clip-path="url(#cbd6d2801d)"><g clip-path="url(#68ac7071bf)"><path fill="#9e844f" d="M 97.613281 84.949219 C 97.964844 86.207031 99.980469 86.191406 100.253906 84.890625 C 100.425781 84.234375 100.101562 83.707031 99.628906 83.445312 C 98.625 82.671875 97.257812 83.726562 97.613281 84.949219 Z M 97.613281 84.949219 " fill-opacity="1" fill-rule="nonzero"/></g></g></g></g><g clip-path="url(#7135475b87)"><g clip-path="url(#8c213c9ab4)"><g clip-path="url(#d08b4a8dff)"><g clip-path="url(#6de31fa0b1)"><path fill="#9e844f" d="M 99.339844 84.890625 C 98.933594 86.496094 99.300781 88.324219 100.554688 89.613281 C 101.617188 90.695312 103.484375 91.566406 105.042969 91.835938 C 105.15625 91.855469 105.257812 91.867188 105.367188 91.882812 C 105.664062 91.917969 105.949219 91.929688 106.203125 91.921875 C 107.734375 91.792969 108.410156 90.863281 108.046875 89.578125 C 108.269531 89.390625 108.5 89.195312 108.726562 89.003906 C 108.824219 89.214844 108.898438 89.429688 108.949219 89.648438 C 109.410156 91.597656 107.957031 92.773438 106.152344 92.796875 C 105.625 92.769531 105.089844 92.699219 104.550781 92.578125 C 103.558594 92.355469 102.558594 91.964844 101.652344 91.433594 C 101.160156 91.136719 100.695312 90.800781 100.261719 90.441406 C 98.640625 89.011719 98.074219 86.773438 98.386719 84.941406 C 98.46875 83.726562 99.59375 84.277344 99.339844 84.890625 Z M 99.339844 84.890625 " fill-opacity="1" fill-rule="nonzero"/></g></g></g></g><g clip-path="url(#e52e95703b)"><g clip-path="url(#b2a699ad6b)"><g clip-path="url(#24e5ac9d4e)"><g clip-path="url(#e8223a7f62)"><path fill="#9e844f" d="M 104.269531 79.539062 C 104.683594 80.777344 106.691406 80.660156 106.90625 79.347656 C 107.039062 78.683594 106.691406 78.175781 106.210938 77.9375 C 105.164062 77.214844 103.847656 78.332031 104.269531 79.539062 Z M 104.269531 79.539062 " fill-opacity="1" fill-rule="nonzero"/></g></g></g></g><g clip-path="url(#705645d64e)"><g clip-path="url(#c8d9e8b044)"><g clip-path="url(#376e9f738a)"><g clip-path="url(#75c8156fa7)"><path fill="#9e844f" d="M 105.984375 79.394531 C 105.65625 81.015625 106.121094 82.828125 107.425781 84.046875 C 108.546875 85.082031 110.453125 85.859375 112.019531 86.050781 C 112.066406 86.058594 112.109375 86.0625 112.148438 86.0625 C 112.527344 86.09375 112.882812 86.113281 113.183594 86.082031 C 114.699219 85.878906 115.320312 84.929688 114.929688 83.675781 C 115.148438 83.488281 115.371094 83.300781 115.59375 83.097656 C 115.6875 83.289062 115.753906 83.476562 115.816406 83.679688 C 116.378906 85.601562 114.976562 86.839844 113.175781 86.960938 C 112.582031 86.964844 111.945312 86.902344 111.324219 86.773438 C 110.398438 86.582031 109.476562 86.253906 108.609375 85.808594 C 108.101562 85.539062 107.617188 85.234375 107.183594 84.890625 C 105.480469 83.546875 104.8125 81.335938 105.035156 79.496094 C 105.066406 78.269531 106.210938 78.78125 105.984375 79.394531 Z M 105.984375 79.394531 " fill-opacity="1" fill-rule="nonzero"/></g></g></g></g><g clip-path="url(#97624b8bfb)"><g clip-path="url(#de489d502c)"><g clip-path="url(#63f257a18d)"><g clip-path="url(#b20e589cd0)"><path fill="#9e844f" d="M 111.3125 74.621094 C 111.949219 75.757812 113.902344 75.265625 113.863281 73.941406 C 113.871094 73.261719 113.433594 72.828125 112.917969 72.683594 C 111.757812 72.167969 110.675781 73.511719 111.3125 74.621094 Z M 111.3125 74.621094 " fill-opacity="1" fill-rule="nonzero"/></g></g></g></g><g clip-path="url(#ef206a6d1a)"><g clip-path="url(#8406c420f2)"><g clip-path="url(#bc0b2a93f7)"><g clip-path="url(#ad76fee6ac)"><path fill="#9e844f" d="M 112.964844 74.15625 C 112.957031 75.816406 113.746094 77.507812 115.261719 78.453125 C 116.421875 79.183594 118.175781 79.585938 119.664062 79.570312 C 119.828125 79.574219 119.992188 79.570312 120.144531 79.558594 C 120.570312 79.527344 120.960938 79.46875 121.292969 79.371094 C 122.617188 78.921875 123.09375 78.015625 122.691406 76.976562 C 122.910156 76.789062 123.132812 76.601562 123.363281 76.410156 C 123.390625 76.441406 123.398438 76.472656 123.417969 76.515625 C 124.335938 78.300781 123.191406 79.78125 121.453125 80.242188 C 120.605469 80.414062 119.683594 80.453125 118.753906 80.363281 C 118.085938 80.296875 117.410156 80.160156 116.75 79.964844 C 116.199219 79.796875 115.671875 79.59375 115.167969 79.332031 C 113.253906 78.332031 112.183594 76.285156 112.054688 74.433594 C 111.863281 73.230469 113.082031 73.503906 112.964844 74.15625 Z M 112.964844 74.15625 " fill-opacity="1" fill-rule="nonzero"/></g></g></g></g><g clip-path="url(#e71e70806a)"><g clip-path="url(#cecbc58ef4)"><g clip-path="url(#435cfae09c)"><g clip-path="url(#58ed3cd372)"><path fill="#9e844f" d="M 117.9375 69.148438 C 118.574219 70.289062 120.527344 69.796875 120.488281 68.46875 C 120.492188 67.789062 120.054688 67.355469 119.542969 67.214844 C 118.378906 66.699219 117.296875 68.042969 117.9375 69.148438 Z M 117.9375 69.148438 " fill-opacity="1" fill-rule="nonzero"/></g></g></g></g><g clip-path="url(#61f4167864)"><g clip-path="url(#5400b9ab6e)"><g clip-path="url(#c9098f0783)"><g clip-path="url(#6eb81cdaaa)"><path fill="#9e844f" d="M 129.277344 71.417969 C 129.757812 72.492188 129.28125 73.449219 127.914062 73.894531 C 127.585938 74 127.191406 74.050781 126.765625 74.082031 C 126.574219 74.097656 126.371094 74.105469 126.167969 74.085938 C 126.097656 74.101562 126.015625 74.097656 125.9375 74.089844 C 124.535156 74.054688 122.960938 73.660156 121.886719 72.988281 C 120.363281 72.03125 119.574219 70.34375 119.589844 68.691406 C 119.699219 68.027344 118.480469 67.757812 118.6875 68.960938 C 118.8125 70.816406 119.882812 72.863281 121.796875 73.863281 C 122.292969 74.113281 122.828125 74.324219 123.382812 74.496094 C 123.914062 74.652344 124.457031 74.773438 125.007812 74.847656 C 125.082031 74.855469 125.15625 74.867188 125.234375 74.875 C 126.207031 74.988281 127.183594 74.945312 128.078125 74.765625 C 129.820312 74.316406 130.964844 72.832031 130.046875 71.046875 C 130.019531 70.976562 129.976562 70.902344 129.9375 70.832031 C 129.851562 70.898438 129.773438 70.972656 129.695312 71.050781 " fill-opacity="1" fill-rule="nonzero"/></g></g></g></g><g clip-path="url(#9f7b37a2a0)"><g clip-path="url(#b8c1e19606)"><g clip-path="url(#2f3224ca1e)"><g clip-path="url(#2a5f542f59)"><path fill="#dfd1af" d="M 22.578125 80.207031 C 27.5 85.839844 32.5625 91.339844 37.550781 96.910156 C 42.160156 102.21875 46.773438 107.519531 51.777344 112.464844 C 52.976562 113.683594 54.222656 114.859375 55.457031 116.046875 C 55.65625 116.3125 56.054688 116.535156 56.300781 116.191406 C 56.410156 116.039062 56.402344 115.816406 56.28125 115.671875 C 55.597656 115.003906 54.898438 114.347656 54.210938 113.683594 C 51.546875 111.070312 48.945312 108.390625 46.398438 105.660156 C 39.980469 98.417969 33.5625 91.167969 27.0625 83.996094 C 25.726562 82.539062 24.476562 80.980469 23.105469 79.566406 C 22.722656 79.339844 22.273438 79.863281 22.578125 80.207031 Z M 22.578125 80.207031 " fill-opacity="1" fill-rule="nonzero"/></g></g></g></g><g clip-path="url(#7b277405bb)"><g clip-path="url(#7802210642)"><g clip-path="url(#5a30b90cc5)"><g clip-path="url(#cdf8565d42)"><path fill="#dfd1af" d="M 26.699219 76.488281 C 34.242188 84.964844 42.015625 93.226562 49.703125 101.570312 C 52.925781 104.988281 56.171875 108.386719 59.472656 111.726562 C 59.84375 112.003906 60.175781 112.796875 60.707031 112.4375 C 61.03125 112.144531 60.761719 111.789062 60.496094 111.566406 C 60.136719 111.191406 59.773438 110.824219 59.40625 110.457031 C 55.417969 106.375 51.453125 102.273438 47.625 98.039062 C 42.039062 92.003906 36.351562 86.0625 30.921875 79.886719 C 29.6875 78.542969 28.511719 77.125 27.222656 75.84375 C 26.84375 75.617188 26.394531 76.144531 26.699219 76.488281 Z M 26.699219 76.488281 " fill-opacity="1" fill-rule="nonzero"/></g></g></g></g><g clip-path="url(#a4f76cdf9e)"><g clip-path="url(#34625157f0)"><g clip-path="url(#0cec297180)"><g clip-path="url(#81c4321e1b)"><path fill="#dfd1af" d="M 31.375 73.054688 C 35.46875 77.933594 40.046875 82.382812 44.335938 87.082031 C 47.957031 91.179688 51.460938 95.375 55.410156 99.167969 C 58.476562 102.390625 62.183594 105.652344 64.945312 108.21875 C 65.324219 108.449219 65.773438 107.917969 65.46875 107.578125 C 64.460938 106.578125 63.574219 105.804688 62.410156 104.742188 C 56.71875 99.605469 50.996094 93.582031 45.828125 87.464844 C 41.992188 83.265625 38.027344 79.1875 34.164062 75.015625 C 33.425781 74.230469 32.765625 73.378906 32.066406 72.558594 C 31.984375 72.453125 31.875 72.375 31.746094 72.363281 C 31.386719 72.320312 31.128906 72.777344 31.375 73.054688 Z M 31.375 73.054688 " fill-opacity="1" fill-rule="nonzero"/></g></g></g></g><g clip-path="url(#bd0decebbe)"><g clip-path="url(#42941c0813)"><g clip-path="url(#210fdf3171)"><g clip-path="url(#c5fc725c0e)"><path fill="#dfd1af" d="M 82.738281 29.015625 C 86.828125 33.890625 91.410156 38.339844 95.699219 43.039062 C 99.320312 47.136719 102.820312 51.332031 106.769531 55.125 C 109.839844 58.347656 113.546875 61.609375 116.308594 64.179688 C 116.6875 64.40625 117.132812 63.878906 116.832031 63.535156 C 115.820312 62.539062 114.9375 61.765625 113.769531 60.699219 C 108.082031 55.5625 102.359375 49.539062 97.191406 43.421875 C 93.355469 39.226562 89.386719 35.144531 85.523438 30.972656 C 84.789062 30.1875 84.125 29.335938 83.425781 28.515625 C 83.347656 28.414062 83.238281 28.332031 83.105469 28.320312 C 82.75 28.273438 82.488281 28.734375 82.738281 29.015625 Z M 82.738281 29.015625 " fill-opacity="1" fill-rule="nonzero"/></g></g></g></g><g clip-path="url(#f115cd56dd)"><g clip-path="url(#61bd61a754)"><g clip-path="url(#2b36d525ab)"><g clip-path="url(#b11a2f864d)"><path fill="#dfd1af" d="M 36.261719 68.683594 C 39.363281 72.234375 42.570312 75.691406 45.863281 79.066406 C 52.394531 86.507812 59.242188 93.675781 66.261719 100.65625 C 67.511719 101.851562 68.78125 103.03125 70.109375 104.140625 C 70.4375 104.386719 70.925781 104.003906 70.738281 103.621094 C 67.277344 100.59375 64.015625 97.257812 60.648438 93.773438 C 53.769531 86.773438 47.34375 79.363281 40.585938 72.261719 C 39.308594 70.871094 38.097656 69.394531 36.785156 68.046875 C 36.40625 67.8125 35.957031 68.339844 36.261719 68.683594 Z M 36.261719 68.683594 " fill-opacity="1" fill-rule="nonzero"/></g></g></g></g><g clip-path="url(#5570a03231)"><g clip-path="url(#d687a18751)"><g clip-path="url(#a376e526f4)"><g clip-path="url(#70d7f8aae6)"><path fill="#dfd1af" d="M 40.992188 64.339844 C 47.015625 70.464844 52.867188 76.75 58.628906 83.121094 C 62.441406 87.519531 66.261719 91.914062 70.464844 95.945312 C 72.089844 97.480469 73.832031 99.492188 74.746094 100.011719 C 75.011719 100.042969 75.253906 99.792969 75.207031 99.523438 C 74.84375 98.878906 74.546875 98.875 74.246094 98.507812 C 72.628906 96.9375 71.054688 95.320312 69.445312 93.738281 C 65.910156 90.285156 62.722656 86.511719 59.472656 82.796875 C 55.15625 78.101562 50.910156 73.34375 46.480469 68.761719 C 44.898438 67.074219 43.167969 65.53125 41.640625 63.796875 C 41.3125 63.382812 40.628906 63.914062 40.992188 64.339844 Z M 40.992188 64.339844 " fill-opacity="1" fill-rule="nonzero"/></g></g></g></g><g clip-path="url(#fbc4ca59a0)"><g clip-path="url(#9d0dceaa83)"><g clip-path="url(#860c384358)"><g clip-path="url(#97c3af61a2)"><path fill="#dfd1af" d="M 46.464844 60.136719 C 52.226562 66.996094 58.160156 73.707031 64.277344 80.253906 C 69.207031 85.710938 74.203125 90.898438 79.421875 96.0625 C 79.710938 96.238281 80.101562 95.957031 80.039062 95.625 C 79.984375 95.371094 79.730469 95.214844 79.582031 95.015625 C 75.796875 91.171875 71.894531 87.453125 68.339844 83.386719 C 63.902344 78.523438 59.324219 73.785156 55.003906 68.816406 C 52.535156 65.777344 49.886719 62.894531 47.351562 59.910156 C 47.199219 59.730469 47.097656 59.46875 46.835938 59.445312 C 46.476562 59.398438 46.21875 59.855469 46.464844 60.136719 Z M 46.464844 60.136719 " fill-opacity="1" fill-rule="nonzero"/></g></g></g></g><g clip-path="url(#4524d58e16)"><g clip-path="url(#1dfbdc8765)"><g clip-path="url(#8d6ffd5df3)"><g clip-path="url(#3f1678a3df)"><path fill="#dfd1af" d="M 77.507812 33.132812 C 83.269531 39.992188 89.203125 46.703125 95.320312 53.25 C 100.25 58.707031 105.246094 63.894531 110.464844 69.058594 C 110.753906 69.234375 111.144531 68.957031 111.082031 68.625 C 111.027344 68.371094 110.777344 68.210938 110.625 68.015625 C 106.839844 64.171875 102.9375 60.453125 99.382812 56.386719 C 94.945312 51.523438 90.367188 46.78125 86.046875 41.816406 C 83.578125 38.777344 80.929688 35.890625 78.394531 32.910156 C 78.242188 32.726562 78.140625 32.464844 77.878906 32.441406 C 77.519531 32.394531 77.257812 32.855469 77.507812 33.132812 Z M 77.507812 33.132812 " fill-opacity="1" fill-rule="nonzero"/></g></g></g></g><g clip-path="url(#4cf0895bf7)"><g clip-path="url(#9a02498170)"><g clip-path="url(#d5eb2e912d)"><g clip-path="url(#e27665f99a)"><path fill="#dfd1af" d="M 51.328125 55.339844 C 63 66.785156 72.710938 80.089844 84.542969 91.382812 C 84.78125 91.65625 85.253906 91.953125 85.476562 91.449219 C 85.582031 91.160156 85.351562 90.964844 85.152344 90.800781 C 84.195312 89.917969 82.667969 88.4375 81.542969 87.199219 C 73.515625 79.023438 66.308594 70.097656 58.589844 61.636719 C 56.429688 59.3125 54.265625 56.992188 51.976562 54.792969 C 51.648438 54.378906 50.964844 54.910156 51.328125 55.339844 Z M 51.328125 55.339844 " fill-opacity="1" fill-rule="nonzero"/></g></g></g></g><g clip-path="url(#aff1733d84)"><g clip-path="url(#0a79d7797e)"><g clip-path="url(#d43c07fe4d)"><g clip-path="url(#cc9005d918)"><path fill="#dfd1af" d="M 56.503906 50.984375 C 62.425781 57.804688 68.605469 64.417969 74.710938 71.085938 C 78.921875 75.6875 82.96875 80.449219 87.546875 84.699219 C 88.453125 85.492188 89.207031 86.511719 90.171875 87.207031 C 90.609375 87.328125 90.894531 86.691406 90.503906 86.441406 C 86.964844 82.996094 82.546875 78.671875 79.042969 74.609375 C 72.492188 67.445312 65.972656 60.25 59.421875 53.082031 C 58.570312 52.21875 57.824219 51.238281 57.027344 50.34375 C 56.648438 50.117188 56.199219 50.640625 56.503906 50.984375 Z M 56.503906 50.984375 " fill-opacity="1" fill-rule="nonzero"/></g></g></g></g><g clip-path="url(#38dd72afc8)"><g clip-path="url(#2214fc4319)"><g clip-path="url(#27c14aa1eb)"><g clip-path="url(#070242b97a)"><path fill="#dfd1af" d="M 61.957031 46.21875 C 70.75 55.8125 79.335938 65.597656 87.714844 75.558594 C 89.546875 77.707031 91.5625 79.679688 93.5625 81.671875 C 94.105469 82.121094 94.574219 82.867188 95.1875 83.160156 C 95.453125 83.191406 95.695312 82.941406 95.652344 82.671875 C 95.542969 82.320312 95.15625 82.117188 94.925781 81.839844 C 90.089844 77.273438 85.875 72.132812 81.632812 67.023438 C 77.582031 62.476562 73.574219 57.894531 69.566406 53.3125 C 67.277344 50.785156 64.964844 48.28125 62.671875 45.757812 C 62.390625 45.246094 61.5625 45.699219 61.957031 46.21875 Z M 61.957031 46.21875 " fill-opacity="1" fill-rule="nonzero"/></g></g></g></g><g clip-path="url(#3303ad3d20)"><g clip-path="url(#f00b5763be)"><g clip-path="url(#66a0c3bc1d)"><g clip-path="url(#157b3a5b71)"><path fill="#dfd1af" d="M 66.539062 42.304688 C 69.796875 45.609375 73.390625 50.15625 76.621094 54.03125 C 79.042969 56.875 81.699219 59.5 84.203125 62.269531 C 89.230469 67.804688 94.976562 74.867188 100.234375 78.90625 C 101.265625 78.472656 99.835938 77.71875 99.28125 77.070312 C 97.175781 75.0625 95.039062 73.078125 93.070312 70.925781 C 89.964844 67.558594 86.996094 64.0625 83.902344 60.683594 C 80.746094 57.34375 77.5625 54.019531 74.726562 50.394531 C 72.363281 47.515625 69.953125 44.664062 67.398438 41.957031 C 67.113281 41.726562 67.253906 41.710938 66.90625 41.609375 C 66.550781 41.566406 66.292969 42.027344 66.539062 42.304688 Z M 66.539062 42.304688 " fill-opacity="1" fill-rule="nonzero"/></g></g></g></g><g clip-path="url(#32a343a258)"><g clip-path="url(#d1775a6abf)"><g clip-path="url(#fd8c53c900)"><g clip-path="url(#a1ef49f63e)"><path fill="#dfd1af" d="M 71.59375 38.1875 C 74.90625 41.921875 79.210938 46.425781 82.863281 50.414062 C 88.914062 57.164062 94.8125 64.0625 101.113281 70.578125 C 102.304688 71.765625 103.507812 72.933594 104.714844 74.101562 C 104.898438 74.355469 105.289062 74.476562 105.492188 74.179688 C 105.800781 73.632812 104.972656 73.289062 104.695312 72.910156 C 102.066406 70.402344 99.527344 67.800781 97.117188 65.082031 C 90.113281 57.414062 83.34375 49.53125 76.210938 41.984375 C 74.757812 40.5625 73.480469 38.972656 72.082031 37.5 C 71.65625 37.183594 71.136719 37.867188 71.59375 38.1875 Z M 71.59375 38.1875 " fill-opacity="1" fill-rule="nonzero"/></g></g></g></g><g clip-path="url(#a9027ddae9)"><g clip-path="url(#3315dab867)"><g clip-path="url(#a9220a62cc)"><g clip-path="url(#0e6c88a989)"><path fill="#dabda0" d="M 68.535156 41.867188 C 68.46875 41.757812 68.449219 41.632812 68.441406 41.511719 C 68.394531 40.570312 68.386719 39.621094 68.410156 38.679688 C 68.429688 37.824219 68.488281 36.972656 68.636719 36.132812 C 68.710938 35.789062 68.757812 35.226562 69.203125 35.195312 C 71.433594 35.671875 74.761719 36.667969 76.804688 37.378906 C 77.761719 37.710938 78.4375 37.980469 78.59375 38.105469 C 78.824219 38.296875 79.015625 38.652344 78.816406 38.925781 C 78.558594 39.222656 78.132812 39.308594 77.789062 39.476562 C 77.457031 39.617188 77.117188 39.742188 76.777344 39.859375 C 75.855469 40.1875 74.917969 40.453125 73.988281 40.75 C 72.992188 41.070312 72.03125 41.488281 71.039062 41.800781 C 70.523438 41.949219 70 42.058594 69.472656 42.140625 C 69.144531 42.195312 68.742188 42.15625 68.535156 41.867188 Z M 68.535156 41.867188 " fill-opacity="1" fill-rule="nonzero"/></g></g></g></g><g clip-path="url(#5771ba4ec2)"><g clip-path="url(#3dbbfa4b50)"><g clip-path="url(#70aa9aa456)"><g clip-path="url(#82166145a5)"><path fill="#404040" d="M 76.777344 39.859375 C 76.84375 39.425781 76.875 39.308594 76.894531 38.976562 C 76.972656 38.3125 76.882812 37.910156 76.804688 37.375 C 77.761719 37.707031 78.4375 37.976562 78.59375 38.101562 C 78.824219 38.292969 79.015625 38.648438 78.8125 38.921875 C 78.554688 39.21875 78.132812 39.304688 77.789062 39.476562 C 77.457031 39.617188 77.117188 39.742188 76.777344 39.859375 Z M 76.777344 39.859375 " fill-opacity="1" fill-rule="nonzero"/></g></g></g></g><g clip-path="url(#c394cda377)"><g clip-path="url(#01fe11e9ee)"><g clip-path="url(#5a267b0dc6)"><g clip-path="url(#ecb580283a)"><path fill="#c49c6e" d="M 69.382812 42.0625 C 69.699219 41.382812 69.707031 40.585938 69.773438 39.84375 C 69.789062 39.460938 69.796875 39.070312 69.777344 38.679688 C 69.777344 38.652344 69.777344 38.628906 69.777344 38.601562 C 69.75 37.667969 69.75 35.625 69.191406 35.25 C 68.59375 34.851562 57.335938 34.851562 46.078125 35.273438 C 34.816406 35.433594 23.570312 36.011719 22.996094 36.4375 C 22.457031 36.84375 22.574219 38.886719 22.59375 39.816406 C 22.597656 39.84375 22.597656 39.871094 22.601562 39.894531 C 22.601562 40.285156 22.632812 40.675781 22.667969 41.054688 C 22.78125 41.792969 22.824219 42.589844 23.183594 43.25 C 23.429688 43.675781 34.9375 43.445312 46.296875 43.085938 C 57.65625 42.863281 69.15625 42.5 69.382812 42.0625 Z M 69.382812 42.0625 " fill-opacity="1" fill-rule="nonzero"/></g></g></g></g><g fill="#000000" fill-opacity="1"><g transform="translate(52.104089, 55.305905)"><g><path d="M 1.578125 1.4375 C 1.296875 1.21875 1.226562 1.015625 1.375 0.828125 L 8.03125 -7.765625 C 8.09375 -7.859375 8.175781 -7.894531 8.28125 -7.875 C 8.382812 -7.863281 8.507812 -7.804688 8.65625 -7.703125 C 8.769531 -7.609375 8.84375 -7.515625 8.875 -7.421875 C 8.90625 -7.328125 8.921875 -7.210938 8.921875 -7.078125 L 8 3.59375 L 13.515625 -3.515625 C 13.578125 -3.609375 13.660156 -3.644531 13.765625 -3.625 C 13.867188 -3.613281 13.992188 -3.554688 14.140625 -3.453125 C 14.410156 -3.242188 14.476562 -3.050781 14.34375 -2.875 L 7.6875 5.71875 C 7.613281 5.8125 7.523438 5.851562 7.421875 5.84375 C 7.316406 5.84375 7.203125 5.796875 7.078125 5.703125 C 6.960938 5.617188 6.890625 5.535156 6.859375 5.453125 C 6.835938 5.378906 6.835938 5.253906 6.859375 5.078125 L 7.78125 -5.71875 L 2.203125 1.484375 C 2.128906 1.578125 2.039062 1.617188 1.9375 1.609375 C 1.832031 1.609375 1.710938 1.550781 1.578125 1.4375 Z M 1.578125 1.4375 "/></g></g></g><g fill="#000000" fill-opacity="1"><g transform="translate(60.949596, 62.150152)"><g><path d="M 2.625 2.328125 C 2.125 1.941406 1.796875 1.519531 1.640625 1.0625 C 1.492188 0.601562 1.476562 0.132812 1.59375 -0.34375 C 1.707031 -0.820312 1.925781 -1.273438 2.25 -1.703125 C 2.582031 -2.117188 2.9375 -2.445312 3.3125 -2.6875 C 3.6875 -2.9375 4.070312 -3.097656 4.46875 -3.171875 C 4.863281 -3.253906 5.257812 -3.242188 5.65625 -3.140625 C 6.050781 -3.046875 6.425781 -2.867188 6.78125 -2.609375 C 7.09375 -2.359375 7.328125 -2.097656 7.484375 -1.828125 C 7.640625 -1.554688 7.707031 -1.273438 7.6875 -0.984375 C 7.664062 -0.703125 7.550781 -0.421875 7.34375 -0.140625 C 7.15625 0.0976562 6.9375 0.273438 6.6875 0.390625 C 6.4375 0.503906 6.15625 0.5625 5.84375 0.5625 C 5.539062 0.5625 5.21875 0.507812 4.875 0.40625 C 4.539062 0.300781 4.195312 0.148438 3.84375 -0.046875 C 3.488281 -0.242188 3.128906 -0.472656 2.765625 -0.734375 L 3.28125 -1.390625 C 3.488281 -1.234375 3.707031 -1.082031 3.9375 -0.9375 C 4.175781 -0.800781 4.421875 -0.679688 4.671875 -0.578125 C 4.921875 -0.484375 5.15625 -0.421875 5.375 -0.390625 C 5.601562 -0.359375 5.8125 -0.367188 6 -0.421875 C 6.1875 -0.472656 6.335938 -0.578125 6.453125 -0.734375 C 6.609375 -0.929688 6.648438 -1.125 6.578125 -1.3125 C 6.515625 -1.507812 6.367188 -1.691406 6.140625 -1.859375 C 5.929688 -2.023438 5.707031 -2.140625 5.46875 -2.203125 C 5.226562 -2.265625 4.972656 -2.269531 4.703125 -2.21875 C 4.441406 -2.164062 4.179688 -2.054688 3.921875 -1.890625 C 3.671875 -1.734375 3.429688 -1.503906 3.203125 -1.203125 C 2.929688 -0.859375 2.75 -0.515625 2.65625 -0.171875 C 2.570312 0.171875 2.578125 0.492188 2.671875 0.796875 C 2.765625 1.097656 2.953125 1.359375 3.234375 1.578125 C 3.421875 1.722656 3.59375 1.820312 3.75 1.875 C 3.914062 1.925781 4.097656 1.945312 4.296875 1.9375 C 4.492188 1.9375 4.71875 1.921875 4.96875 1.890625 C 5.132812 1.867188 5.253906 1.890625 5.328125 1.953125 C 5.410156 2.015625 5.46875 2.113281 5.5 2.25 C 5.53125 2.382812 5.523438 2.5 5.484375 2.59375 C 5.441406 2.6875 5.359375 2.75 5.234375 2.78125 C 4.890625 2.894531 4.554688 2.9375 4.234375 2.90625 C 3.921875 2.882812 3.625 2.820312 3.34375 2.71875 C 3.070312 2.613281 2.832031 2.484375 2.625 2.328125 Z M 2.625 2.328125 "/></g></g></g><g fill="#000000" fill-opacity="1"><g transform="translate(65.915161, 65.992278)"><g><path d="M 2.046875 1.8125 C 1.910156 1.707031 1.828125 1.609375 1.796875 1.515625 C 1.765625 1.429688 1.765625 1.335938 1.796875 1.234375 L 3.625 -4.203125 C 3.6875 -4.359375 3.785156 -4.457031 3.921875 -4.5 C 4.066406 -4.539062 4.226562 -4.492188 4.40625 -4.359375 C 4.5 -4.285156 4.5625 -4.207031 4.59375 -4.125 C 4.625 -4.039062 4.617188 -3.945312 4.578125 -3.84375 L 2.96875 0.65625 L 7 -1.96875 C 7.082031 -2.039062 7.164062 -2.066406 7.25 -2.046875 C 7.34375 -2.035156 7.441406 -1.992188 7.546875 -1.921875 C 7.640625 -1.847656 7.703125 -1.769531 7.734375 -1.6875 C 7.773438 -1.601562 7.78125 -1.507812 7.75 -1.40625 L 6.234375 3.171875 L 10.171875 0.484375 C 10.265625 0.421875 10.351562 0.394531 10.4375 0.40625 C 10.53125 0.414062 10.617188 0.457031 10.703125 0.53125 C 10.890625 0.664062 10.984375 0.800781 10.984375 0.9375 C 10.992188 1.082031 10.914062 1.207031 10.75 1.3125 L 5.9375 4.4375 C 5.851562 4.488281 5.765625 4.507812 5.671875 4.5 C 5.578125 4.5 5.457031 4.445312 5.3125 4.34375 C 5.175781 4.226562 5.097656 4.128906 5.078125 4.046875 C 5.066406 3.960938 5.070312 3.875 5.09375 3.78125 L 6.5625 -0.640625 L 2.671875 1.921875 C 2.597656 1.960938 2.507812 1.976562 2.40625 1.96875 C 2.300781 1.96875 2.179688 1.914062 2.046875 1.8125 Z M 2.046875 1.8125 "/></g></g></g><g fill="#000000" fill-opacity="1"><g transform="translate(73.505115, 71.865036)"><g/></g></g><g fill="#000000" fill-opacity="1"><g transform="translate(76.337183, 74.05636)"><g><path d="M 1.6875 1.296875 C 1.40625 1.078125 1.332031 0.878906 1.46875 0.703125 L 7.90625 -7.625 C 8.039062 -7.789062 8.25 -7.757812 8.53125 -7.53125 L 10.53125 -5.984375 C 11.082031 -5.554688 11.515625 -5.132812 11.828125 -4.71875 C 12.140625 -4.300781 12.296875 -3.867188 12.296875 -3.421875 C 12.304688 -2.984375 12.117188 -2.515625 11.734375 -2.015625 C 11.484375 -1.703125 11.195312 -1.472656 10.875 -1.328125 C 10.5625 -1.179688 10.226562 -1.09375 9.875 -1.0625 C 9.519531 -1.039062 9.179688 -1.054688 8.859375 -1.109375 C 8.546875 -1.171875 8.253906 -1.25 7.984375 -1.34375 L 7.96875 -1.328125 C 8.269531 -1.078125 8.53125 -0.804688 8.75 -0.515625 C 8.976562 -0.222656 9.148438 0.0820312 9.265625 0.40625 C 9.378906 0.738281 9.40625 1.078125 9.34375 1.421875 C 9.28125 1.765625 9.113281 2.109375 8.84375 2.453125 C 8.59375 2.773438 8.304688 3.039062 7.984375 3.25 C 7.671875 3.457031 7.332031 3.597656 6.96875 3.671875 C 6.613281 3.753906 6.238281 3.769531 5.84375 3.71875 C 5.445312 3.664062 5.046875 3.550781 4.640625 3.375 C 4.242188 3.207031 3.847656 2.972656 3.453125 2.671875 Z M 2.671875 0.875 L 4.03125 1.921875 C 4.46875 2.253906 4.878906 2.476562 5.265625 2.59375 C 5.660156 2.71875 6.019531 2.765625 6.34375 2.734375 C 6.675781 2.703125 6.984375 2.601562 7.265625 2.4375 C 7.546875 2.28125 7.785156 2.070312 7.984375 1.8125 C 8.203125 1.53125 8.335938 1.253906 8.390625 0.984375 C 8.441406 0.710938 8.421875 0.4375 8.328125 0.15625 C 8.234375 -0.125 8.066406 -0.398438 7.828125 -0.671875 C 7.585938 -0.953125 7.28125 -1.238281 6.90625 -1.53125 L 5.421875 -2.671875 Z M 6.015625 -3.4375 L 7.375 -2.390625 C 7.664062 -2.160156 7.96875 -2 8.28125 -1.90625 C 8.59375 -1.8125 8.90625 -1.769531 9.21875 -1.78125 C 9.539062 -1.800781 9.84375 -1.890625 10.125 -2.046875 C 10.40625 -2.203125 10.65625 -2.414062 10.875 -2.6875 C 11.125 -3.007812 11.234375 -3.304688 11.203125 -3.578125 C 11.179688 -3.859375 11.054688 -4.132812 10.828125 -4.40625 C 10.609375 -4.675781 10.316406 -4.953125 9.953125 -5.234375 L 8.359375 -6.46875 Z M 6.015625 -3.4375 "/></g></g></g><g fill="#000000" fill-opacity="1"><g transform="translate(83.558964, 79.644243)"><g><path d="M 1.703125 1.578125 C 1.367188 1.316406 1.195312 1.046875 1.1875 0.765625 C 1.175781 0.492188 1.289062 0.203125 1.53125 -0.109375 L 7.671875 -8.046875 C 7.734375 -8.128906 7.8125 -8.164062 7.90625 -8.15625 C 8.007812 -8.15625 8.128906 -8.101562 8.265625 -8 C 8.398438 -7.894531 8.484375 -7.796875 8.515625 -7.703125 C 8.546875 -7.609375 8.53125 -7.519531 8.46875 -7.4375 L 2.40625 0.40625 C 2.300781 0.53125 2.253906 0.644531 2.265625 0.75 C 2.285156 0.851562 2.335938 0.9375 2.421875 1 C 2.484375 1.050781 2.546875 1.082031 2.609375 1.09375 C 2.679688 1.113281 2.753906 1.125 2.828125 1.125 C 2.898438 1.132812 2.96875 1.140625 3.03125 1.140625 C 3.101562 1.140625 3.160156 1.164062 3.203125 1.21875 C 3.253906 1.28125 3.28125 1.375 3.28125 1.5 C 3.269531 1.5625 3.25 1.628906 3.21875 1.703125 C 3.1875 1.773438 3.140625 1.828125 3.078125 1.859375 C 2.929688 1.910156 2.773438 1.925781 2.609375 1.90625 C 2.441406 1.894531 2.28125 1.859375 2.125 1.796875 C 1.96875 1.742188 1.828125 1.671875 1.703125 1.578125 Z M 1.703125 1.578125 "/></g></g></g><g fill="#000000" fill-opacity="1"><g transform="translate(86.381597, 81.828266)"><g><path d="M 2.640625 2.34375 C 2.222656 2.007812 1.929688 1.601562 1.765625 1.125 C 1.609375 0.65625 1.582031 0.15625 1.6875 -0.375 C 1.789062 -0.90625 2.035156 -1.414062 2.421875 -1.90625 C 2.703125 -2.28125 3.015625 -2.578125 3.359375 -2.796875 C 3.710938 -3.023438 4.070312 -3.171875 4.4375 -3.234375 C 4.8125 -3.304688 5.179688 -3.304688 5.546875 -3.234375 C 5.910156 -3.160156 6.253906 -3 6.578125 -2.75 C 7.003906 -2.414062 7.296875 -2.015625 7.453125 -1.546875 C 7.617188 -1.078125 7.644531 -0.578125 7.53125 -0.046875 C 7.425781 0.472656 7.179688 0.984375 6.796875 1.484375 C 6.566406 1.773438 6.3125 2.023438 6.03125 2.234375 C 5.757812 2.441406 5.484375 2.597656 5.203125 2.703125 C 4.921875 2.816406 4.628906 2.878906 4.328125 2.890625 C 4.023438 2.898438 3.726562 2.859375 3.4375 2.765625 C 3.15625 2.679688 2.890625 2.539062 2.640625 2.34375 Z M 3.234375 1.578125 C 3.453125 1.742188 3.671875 1.847656 3.890625 1.890625 C 4.109375 1.941406 4.335938 1.929688 4.578125 1.859375 C 4.816406 1.785156 5.054688 1.664062 5.296875 1.5 C 5.535156 1.332031 5.757812 1.113281 5.96875 0.84375 C 6.25 0.476562 6.4375 0.125 6.53125 -0.21875 C 6.632812 -0.570312 6.640625 -0.898438 6.546875 -1.203125 C 6.460938 -1.503906 6.273438 -1.765625 5.984375 -1.984375 C 5.773438 -2.148438 5.554688 -2.257812 5.328125 -2.3125 C 5.097656 -2.363281 4.863281 -2.351562 4.625 -2.28125 C 4.394531 -2.207031 4.160156 -2.085938 3.921875 -1.921875 C 3.691406 -1.765625 3.46875 -1.546875 3.25 -1.265625 C 2.96875 -0.898438 2.773438 -0.539062 2.671875 -0.1875 C 2.578125 0.164062 2.578125 0.492188 2.671875 0.796875 C 2.765625 1.097656 2.953125 1.359375 3.234375 1.578125 Z M 3.234375 1.578125 "/></g></g></g><g fill="#000000" fill-opacity="1"><g transform="translate(91.932458, 86.123268)"><g><path d="M -0.65625 6.390625 C -1.070312 6.066406 -1.363281 5.703125 -1.53125 5.296875 C -1.707031 4.898438 -1.796875 4.53125 -1.796875 4.1875 C -1.785156 4.039062 -1.738281 3.929688 -1.65625 3.859375 C -1.570312 3.785156 -1.4375 3.742188 -1.25 3.734375 C -1.0625 3.753906 -0.9375 3.796875 -0.875 3.859375 C -0.8125 3.921875 -0.769531 4.023438 -0.75 4.171875 C -0.726562 4.523438 -0.660156 4.820312 -0.546875 5.0625 C -0.429688 5.300781 -0.257812 5.507812 -0.03125 5.6875 C 0.21875 5.882812 0.472656 6 0.734375 6.03125 C 0.992188 6.070312 1.257812 6.015625 1.53125 5.859375 C 1.8125 5.703125 2.101562 5.425781 2.40625 5.03125 L 4.484375 2.34375 C 4.171875 2.46875 3.878906 2.523438 3.609375 2.515625 C 3.335938 2.515625 3.09375 2.46875 2.875 2.375 C 2.664062 2.28125 2.476562 2.171875 2.3125 2.046875 C 1.957031 1.765625 1.707031 1.429688 1.5625 1.046875 C 1.414062 0.660156 1.398438 0.226562 1.515625 -0.25 C 1.628906 -0.726562 1.894531 -1.234375 2.3125 -1.765625 C 2.5625 -2.085938 2.828125 -2.363281 3.109375 -2.59375 C 3.390625 -2.820312 3.671875 -3 3.953125 -3.125 C 4.242188 -3.257812 4.53125 -3.335938 4.8125 -3.359375 C 5.101562 -3.378906 5.390625 -3.34375 5.671875 -3.25 C 5.953125 -3.164062 6.226562 -3.019531 6.5 -2.8125 C 6.695312 -2.65625 6.878906 -2.460938 7.046875 -2.234375 C 7.222656 -2.015625 7.363281 -1.78125 7.46875 -1.53125 L 7.515625 -1.578125 C 7.578125 -1.660156 7.65625 -1.691406 7.75 -1.671875 C 7.84375 -1.660156 7.957031 -1.601562 8.09375 -1.5 C 8.226562 -1.394531 8.316406 -1.296875 8.359375 -1.203125 C 8.398438 -1.109375 8.390625 -1.019531 8.328125 -0.9375 L 3.1875 5.703125 C 2.789062 6.210938 2.375 6.570312 1.9375 6.78125 C 1.507812 7 1.078125 7.070312 0.640625 7 C 0.203125 6.925781 -0.226562 6.722656 -0.65625 6.390625 Z M 3 1.375 C 3.175781 1.519531 3.375 1.625 3.59375 1.6875 C 3.820312 1.75 4.066406 1.765625 4.328125 1.734375 C 4.585938 1.710938 4.863281 1.625 5.15625 1.46875 L 6.875 -0.765625 C 6.789062 -1.023438 6.675781 -1.253906 6.53125 -1.453125 C 6.382812 -1.660156 6.207031 -1.84375 6 -2 C 5.84375 -2.125 5.671875 -2.210938 5.484375 -2.265625 C 5.304688 -2.328125 5.117188 -2.347656 4.921875 -2.328125 C 4.734375 -2.316406 4.539062 -2.269531 4.34375 -2.1875 C 4.15625 -2.101562 3.960938 -1.972656 3.765625 -1.796875 C 3.566406 -1.628906 3.367188 -1.421875 3.171875 -1.171875 C 2.898438 -0.828125 2.707031 -0.492188 2.59375 -0.171875 C 2.488281 0.148438 2.46875 0.441406 2.53125 0.703125 C 2.59375 0.960938 2.75 1.1875 3 1.375 Z M 3 1.375 "/></g></g></g><g fill="#000000" fill-opacity="1"><g transform="translate(52.229045, 76.154141)"><g/></g></g><g fill="#000000" fill-opacity="1"><g transform="translate(55.068486, 78.35117)"><g><path d="M 4.484375 3.765625 C 3.898438 3.304688 3.457031 2.78125 3.15625 2.1875 C 2.863281 1.601562 2.710938 0.976562 2.703125 0.3125 C 2.703125 -0.351562 2.828125 -1.035156 3.078125 -1.734375 C 3.328125 -2.429688 3.710938 -3.117188 4.234375 -3.796875 C 4.578125 -4.242188 4.941406 -4.628906 5.328125 -4.953125 C 5.722656 -5.285156 6.128906 -5.5625 6.546875 -5.78125 C 6.960938 -6.007812 7.378906 -6.171875 7.796875 -6.265625 C 8.222656 -6.367188 8.65625 -6.410156 9.09375 -6.390625 C 9.539062 -6.367188 9.972656 -6.273438 10.390625 -6.109375 C 10.804688 -5.941406 11.207031 -5.710938 11.59375 -5.421875 C 12.164062 -4.972656 12.59375 -4.457031 12.875 -3.875 C 13.164062 -3.300781 13.320312 -2.679688 13.34375 -2.015625 C 13.363281 -1.347656 13.242188 -0.664062 12.984375 0.03125 C 12.734375 0.726562 12.347656 1.410156 11.828125 2.078125 C 11.472656 2.523438 11.097656 2.914062 10.703125 3.25 C 10.316406 3.59375 9.914062 3.875 9.5 4.09375 C 9.082031 4.320312 8.660156 4.488281 8.234375 4.59375 C 7.804688 4.695312 7.378906 4.734375 6.953125 4.703125 C 6.523438 4.671875 6.101562 4.582031 5.6875 4.4375 C 5.269531 4.289062 4.867188 4.066406 4.484375 3.765625 Z M 5.109375 2.953125 C 5.390625 3.171875 5.679688 3.335938 5.984375 3.453125 C 6.296875 3.566406 6.617188 3.632812 6.953125 3.65625 C 7.285156 3.675781 7.617188 3.644531 7.953125 3.5625 C 8.285156 3.488281 8.617188 3.351562 8.953125 3.15625 C 9.296875 2.957031 9.632812 2.710938 9.96875 2.421875 C 10.300781 2.140625 10.625 1.796875 10.9375 1.390625 C 11.394531 0.804688 11.734375 0.226562 11.953125 -0.34375 C 12.171875 -0.925781 12.273438 -1.476562 12.265625 -2 C 12.265625 -2.53125 12.15625 -3.015625 11.9375 -3.453125 C 11.71875 -3.890625 11.394531 -4.273438 10.96875 -4.609375 C 10.675781 -4.835938 10.375 -5.007812 10.0625 -5.125 C 9.757812 -5.25 9.441406 -5.320312 9.109375 -5.34375 C 8.773438 -5.363281 8.4375 -5.332031 8.09375 -5.25 C 7.75 -5.164062 7.410156 -5.03125 7.078125 -4.84375 C 6.742188 -4.65625 6.410156 -4.414062 6.078125 -4.125 C 5.742188 -3.84375 5.425781 -3.503906 5.125 -3.109375 C 4.65625 -2.503906 4.3125 -1.90625 4.09375 -1.3125 C 3.875 -0.726562 3.769531 -0.179688 3.78125 0.328125 C 3.789062 0.847656 3.90625 1.332031 4.125 1.78125 C 4.351562 2.226562 4.679688 2.617188 5.109375 2.953125 Z M 5.109375 2.953125 "/></g></g></g><g fill="#000000" fill-opacity="1"><g transform="translate(64.282158, 85.480286)"><g><path d="M 2.421875 2.125 C 2.046875 1.84375 1.785156 1.539062 1.640625 1.21875 C 1.503906 0.90625 1.472656 0.570312 1.546875 0.21875 C 1.617188 -0.125 1.804688 -0.488281 2.109375 -0.875 L 4.46875 -3.9375 C 4.53125 -4.019531 4.609375 -4.050781 4.703125 -4.03125 C 4.796875 -4.019531 4.90625 -3.960938 5.03125 -3.859375 C 5.175781 -3.753906 5.269531 -3.65625 5.3125 -3.5625 C 5.351562 -3.476562 5.34375 -3.394531 5.28125 -3.3125 L 2.921875 -0.25 C 2.742188 -0.03125 2.628906 0.175781 2.578125 0.375 C 2.535156 0.582031 2.554688 0.78125 2.640625 0.96875 C 2.722656 1.15625 2.867188 1.328125 3.078125 1.484375 C 3.253906 1.617188 3.4375 1.710938 3.625 1.765625 C 3.820312 1.828125 4.019531 1.859375 4.21875 1.859375 C 4.425781 1.859375 4.628906 1.828125 4.828125 1.765625 C 5.023438 1.703125 5.21875 1.613281 5.40625 1.5 L 7.6875 -1.453125 C 7.75 -1.535156 7.820312 -1.566406 7.90625 -1.546875 C 8 -1.535156 8.117188 -1.476562 8.265625 -1.375 C 8.390625 -1.269531 8.472656 -1.171875 8.515625 -1.078125 C 8.566406 -0.984375 8.5625 -0.894531 8.5 -0.8125 L 5.625 2.90625 C 5.5625 2.988281 5.519531 3.066406 5.5 3.140625 C 5.476562 3.210938 5.476562 3.28125 5.5 3.34375 C 5.53125 3.414062 5.570312 3.46875 5.625 3.5 C 5.675781 3.550781 5.734375 3.582031 5.796875 3.59375 C 5.867188 3.613281 5.941406 3.625 6.015625 3.625 C 6.085938 3.625 6.160156 3.625 6.234375 3.625 C 6.316406 3.625 6.378906 3.65625 6.421875 3.71875 C 6.460938 3.789062 6.484375 3.875 6.484375 3.96875 C 6.484375 4.050781 6.460938 4.125 6.421875 4.1875 C 6.390625 4.257812 6.328125 4.304688 6.234375 4.328125 C 6.109375 4.378906 5.96875 4.398438 5.8125 4.390625 C 5.65625 4.390625 5.5 4.363281 5.34375 4.3125 C 5.1875 4.269531 5.046875 4.203125 4.921875 4.109375 C 4.765625 3.984375 4.644531 3.859375 4.5625 3.734375 C 4.488281 3.609375 4.445312 3.476562 4.4375 3.34375 C 4.425781 3.207031 4.429688 3.070312 4.453125 2.9375 C 4.484375 2.800781 4.539062 2.664062 4.625 2.53125 L 4.6875 2.453125 C 4.488281 2.515625 4.289062 2.554688 4.09375 2.578125 C 3.90625 2.609375 3.710938 2.613281 3.515625 2.59375 C 3.328125 2.570312 3.140625 2.519531 2.953125 2.4375 C 2.765625 2.351562 2.585938 2.25 2.421875 2.125 Z M 2.421875 2.125 "/></g></g></g><g fill="#000000" fill-opacity="1"><g transform="translate(70.380548, 90.19894)"><g><path d="M 2.171875 1.9375 C 1.910156 1.726562 1.734375 1.507812 1.640625 1.28125 C 1.546875 1.050781 1.519531 0.8125 1.5625 0.5625 C 1.613281 0.320312 1.738281 0.078125 1.9375 -0.171875 L 4.1875 -3.09375 L 3.453125 -3.671875 C 3.359375 -3.742188 3.316406 -3.820312 3.328125 -3.90625 C 3.335938 -3.988281 3.394531 -4.097656 3.5 -4.234375 C 3.613281 -4.378906 3.707031 -4.460938 3.78125 -4.484375 C 3.863281 -4.515625 3.953125 -4.492188 4.046875 -4.421875 L 4.78125 -3.84375 L 6.265625 -5.765625 C 6.328125 -5.847656 6.40625 -5.882812 6.5 -5.875 C 6.601562 -5.875 6.71875 -5.820312 6.84375 -5.71875 C 6.988281 -5.601562 7.078125 -5.5 7.109375 -5.40625 C 7.148438 -5.3125 7.140625 -5.222656 7.078125 -5.140625 L 5.59375 -3.21875 L 6.78125 -2.296875 C 6.875 -2.222656 6.921875 -2.144531 6.921875 -2.0625 C 6.921875 -1.976562 6.863281 -1.863281 6.75 -1.71875 C 6.644531 -1.582031 6.546875 -1.5 6.453125 -1.46875 C 6.367188 -1.445312 6.28125 -1.472656 6.1875 -1.546875 L 5 -2.46875 L 2.8125 0.359375 C 2.644531 0.578125 2.554688 0.753906 2.546875 0.890625 C 2.535156 1.023438 2.609375 1.148438 2.765625 1.265625 C 2.921875 1.378906 3.070312 1.441406 3.21875 1.453125 C 3.375 1.472656 3.550781 1.472656 3.75 1.453125 C 3.875 1.441406 3.960938 1.472656 4.015625 1.546875 C 4.066406 1.617188 4.101562 1.707031 4.125 1.8125 C 4.132812 1.925781 4.113281 2.015625 4.0625 2.078125 C 4.019531 2.148438 3.957031 2.195312 3.875 2.21875 C 3.644531 2.289062 3.425781 2.320312 3.21875 2.3125 C 3.007812 2.3125 2.816406 2.273438 2.640625 2.203125 C 2.472656 2.128906 2.316406 2.039062 2.171875 1.9375 Z M 2.171875 1.9375 "/></g></g></g><g fill="#000000" fill-opacity="1"><g transform="translate(74.043358, 93.033054)"><g><path d="M 3.296875 -0.703125 C 3.015625 -0.921875 2.941406 -1.117188 3.078125 -1.296875 L 8.0625 -7.734375 C 8.125 -7.828125 8.207031 -7.863281 8.3125 -7.84375 C 8.414062 -7.832031 8.539062 -7.773438 8.6875 -7.671875 C 8.96875 -7.453125 9.039062 -7.253906 8.90625 -7.078125 L 3.921875 -0.640625 C 3.859375 -0.554688 3.769531 -0.519531 3.65625 -0.53125 C 3.550781 -0.539062 3.429688 -0.597656 3.296875 -0.703125 Z M 1.609375 1.46875 C 1.429688 1.332031 1.335938 1.179688 1.328125 1.015625 C 1.316406 0.847656 1.390625 0.664062 1.546875 0.46875 C 1.703125 0.257812 1.863281 0.140625 2.03125 0.109375 C 2.195312 0.078125 2.367188 0.128906 2.546875 0.265625 C 2.722656 0.398438 2.8125 0.550781 2.8125 0.71875 C 2.820312 0.882812 2.75 1.070312 2.59375 1.28125 C 2.445312 1.476562 2.289062 1.59375 2.125 1.625 C 1.957031 1.65625 1.785156 1.601562 1.609375 1.46875 Z M 1.609375 1.46875 "/></g></g></g></svg>