<svg xmlns="http://www.w3.org/2000/svg" xmlns:xlink="http://www.w3.org/1999/xlink" width="244" zoomAndPan="magnify" viewBox="0 0 183 129.750003" height="173" preserveAspectRatio="xMidYMid meet" version="1.0"><defs><filter x="0%" y="0%" width="100%" height="100%" id="76e2bd6c55"><feColorMatrix values="0 0 0 0 1 0 0 0 0 1 0 0 0 0 1 0 0 0 1 0" color-interpolation-filters="sRGB"/></filter><g/><clipPath id="a07d489a16"><path d="M 0.175781 0 L 182.824219 0 L 182.824219 129 L 0.175781 129 Z M 0.175781 0 " clip-rule="nonzero"/></clipPath><clipPath id="0f5414a186"><path d="M 0.175781 0 L 182.464844 0 L 182.464844 128.871094 L 0.175781 128.871094 Z M 0.175781 0 " clip-rule="nonzero"/></clipPath><mask id="317d63427b"><g filter="url(#76e2bd6c55)"><rect x="-40.26" width="263.52" fill="#000000" y="-28.545001" height="186.840004" fill-opacity="0.97"/></g></mask><clipPath id="62fa52de27"><path d="M 0.175781 0 L 182.457031 0 L 182.457031 128.703125 L 0.175781 128.703125 Z M 0.175781 0 " clip-rule="nonzero"/></clipPath><clipPath id="9cd52b10eb"><path d="M 5 51 L 182 51 L 182 128.703125 L 5 128.703125 Z M 5 51 " clip-rule="nonzero"/></clipPath><clipPath id="933e7477a4"><rect x="0" width="183" y="0" height="129"/></clipPath><clipPath id="2e5537a522"><rect x="0" width="155" y="0" height="25"/></clipPath><clipPath id="62c5bbd72a"><rect x="0" width="160" y="0" height="23"/></clipPath><clipPath id="68a1bc9104"><rect x="0" width="183" y="0" height="129"/></clipPath></defs><g clip-path="url(#a07d489a16)"><g transform="matrix(1, 0, 0, 1, 0.000000000000000028, -0.000000000000009007)"><g clip-path="url(#68a1bc9104)"><g clip-path="url(#0f5414a186)"><g mask="url(#317d63427b)"><g transform="matrix(1, 0, 0, 1, 0.000000000000000028, -0.000000000000009007)"><g clip-path="url(#933e7477a4)"><g clip-path="url(#62fa52de27)"><path fill="#e3c7a0" d="M 6.96875 128.34375 C 6.628906 128.1875 6.085938 127.835938 5.765625 127.554688 C 5.289062 127.144531 5.144531 126.949219 5.015625 126.542969 C 4.925781 126.261719 4.617188 125.460938 4.332031 124.757812 C 3.304688 122.234375 3.289062 122.175781 3.28125 120.402344 C 3.269531 118.675781 3.296875 118.523438 4.054688 115.925781 C 4.527344 114.300781 4.6875 113.4375 4.914062 111.25 C 5.117188 109.320312 5.253906 108.515625 5.773438 106.140625 C 6.425781 103.191406 6.535156 102.515625 6.480469 101.839844 C 6.410156 101.019531 6.140625 100.4375 5.183594 99.085938 C 4.160156 97.640625 3.253906 95.972656 2.703125 94.53125 C 2.460938 93.902344 2.089844 93.007812 1.878906 92.546875 C 0.441406 89.429688 0.296875 87.757812 1.230469 84.996094 C 1.589844 83.925781 1.871094 83.347656 3.035156 81.246094 C 5.128906 77.472656 5.179688 77.179688 4.214844 74.335938 C 3.804688 73.117188 3.785156 73.007812 3.785156 71.871094 C 3.785156 70.789062 3.8125 70.609375 4.105469 69.804688 C 4.28125 69.320312 4.640625 68.449219 4.90625 67.867188 C 5.902344 65.691406 5.910156 65.367188 5.023438 62.816406 C 4.058594 60.054688 3.636719 58.726562 3.460938 57.929688 C 3.375 57.539062 3.125 56.570312 2.902344 55.773438 C 2.679688 54.980469 2.53125 54.300781 2.574219 54.269531 C 2.683594 54.1875 6.246094 53.691406 7.890625 53.527344 C 11.511719 53.167969 16.238281 52.878906 21.707031 52.683594 C 23.203125 52.628906 24.464844 52.554688 24.507812 52.519531 C 24.554688 52.480469 24.402344 46.082031 24.175781 38.292969 C 23.945312 30.503906 23.617188 19.304688 23.445312 13.402344 C 23.269531 7.5 23.15625 2.539062 23.191406 2.378906 C 23.273438 2 23.804688 1.488281 24.324219 1.285156 C 25.324219 0.898438 26.765625 1.203125 27.320312 1.921875 C 27.585938 2.269531 27.613281 2.375 27.644531 3.273438 C 27.660156 3.808594 27.992188 15.050781 28.375 28.253906 C 28.804688 42.941406 29.113281 52.296875 29.175781 52.351562 C 29.242188 52.40625 30.417969 52.402344 32.550781 52.34375 C 44.714844 51.992188 62.554688 51.871094 85.738281 51.980469 C 109.355469 52.097656 127.398438 52.097656 136.183594 51.980469 C 145.640625 51.859375 154.617188 51.65625 154.730469 51.558594 C 154.785156 51.507812 154.527344 41.457031 154.089844 26.535156 C 153.542969 7.867188 153.390625 1.527344 153.472656 1.335938 C 153.859375 0.464844 155.207031 0.0234375 156.480469 0.347656 C 157.042969 0.492188 157.636719 0.992188 157.765625 1.429688 C 157.824219 1.632812 158.15625 11.753906 158.546875 25.410156 C 158.917969 38.402344 159.257812 49.570312 159.300781 50.222656 L 159.375 51.414062 L 161.070312 51.390625 C 162.953125 51.367188 169.242188 51.132812 170.078125 51.054688 C 170.371094 51.027344 172.128906 50.972656 173.980469 50.933594 C 176.609375 50.878906 177.382812 50.886719 177.503906 50.972656 C 177.589844 51.03125 177.808594 51.105469 177.988281 51.132812 C 178.433594 51.207031 179.5625 51.824219 179.984375 52.230469 C 180.4375 52.660156 181.113281 54.382812 181.394531 55.828125 C 181.777344 57.785156 181.832031 58.996094 181.792969 64.65625 L 181.753906 70.066406 L 181.492188 70.816406 C 180.085938 74.839844 180.019531 75.117188 180.027344 76.800781 C 180.035156 78.074219 180.0625 78.265625 180.460938 79.746094 C 181.664062 84.222656 181.558594 86.460938 180.003906 89.335938 C 178.601562 91.929688 178.222656 92.957031 178.148438 94.355469 C 178.082031 95.617188 178.222656 96.066406 179.25 97.917969 C 181.457031 101.902344 182.011719 104.351562 182.03125 110.152344 C 182.035156 112.46875 181.9375 113.429688 181.503906 115.230469 C 181.050781 117.117188 180.9375 117.378906 179.75 119.214844 C 179.125 120.1875 178.34375 121.292969 178.015625 121.671875 C 177.023438 122.820312 175.511719 123.964844 174.300781 124.484375 L 173.652344 124.761719 L 139.964844 125.554688 C 121.4375 125.988281 84.605469 126.859375 58.113281 127.488281 C 31.621094 128.113281 9.414062 128.628906 8.765625 128.628906 C 7.632812 128.625 7.558594 128.613281 6.96875 128.34375 Z M 27.261719 64.734375 C 28.257812 64.449219 29.296875 63.382812 29.375 62.5625 C 29.441406 61.914062 29.300781 61.84375 28.808594 62.265625 C 28.53125 62.503906 28.214844 62.667969 27.855469 62.761719 C 27.179688 62.929688 27.011719 62.929688 26.324219 62.753906 C 25.605469 62.574219 25.035156 62.101562 24.941406 61.617188 C 24.820312 60.964844 24.78125 60.871094 24.636719 60.871094 C 24.417969 60.871094 23.808594 61.535156 23.671875 61.917969 C 23.523438 62.34375 23.519531 63.070312 23.664062 63.398438 C 24.078125 64.339844 26.0625 65.074219 27.261719 64.734375 Z M 158.152344 63.707031 C 158.902344 63.378906 159.707031 62.480469 159.886719 61.773438 C 159.96875 61.445312 159.78125 60.871094 159.589844 60.871094 C 159.519531 60.871094 159.410156 60.96875 159.34375 61.089844 C 159.171875 61.414062 158.460938 61.816406 157.863281 61.925781 C 156.511719 62.171875 155.113281 61.421875 155.113281 60.445312 C 155.113281 60.078125 154.988281 60.042969 154.679688 60.324219 C 154.222656 60.746094 154.050781 61.136719 154.050781 61.753906 C 154.046875 62.484375 154.285156 62.914062 154.902344 63.300781 C 155.925781 63.945312 157.234375 64.109375 158.152344 63.707031 Z M 158.152344 63.707031 " fill-opacity="1" fill-rule="nonzero"/></g><g clip-path="url(#9cd52b10eb)"><path fill="#966a2a" d="M 7.121094 128.210938 C 6.402344 127.90625 5.449219 127.105469 5.277344 126.664062 C 5.207031 126.480469 5.175781 126.308594 5.207031 126.28125 C 5.238281 126.257812 6.6875 126.199219 8.425781 126.160156 C 10.164062 126.117188 36.753906 125.289062 67.511719 124.320312 C 98.265625 123.351562 134.800781 122.203125 148.695312 121.769531 C 173.847656 120.984375 176.515625 120.875 176.933594 120.582031 C 177.105469 120.464844 178.414062 116.566406 178.882812 114.769531 C 179.390625 112.839844 179.714844 108.679688 179.554688 106.152344 C 179.371094 103.261719 179.0625 102.28125 177.355469 99.152344 C 176.261719 97.152344 175.859375 95.753906 175.859375 93.960938 C 175.859375 92.308594 176.371094 90.523438 177.296875 88.945312 C 178.53125 86.84375 179.128906 85.179688 179.21875 83.617188 C 179.289062 82.339844 179.148438 81.648438 178.472656 79.945312 C 177.765625 78.175781 177.609375 77.519531 177.605469 76.390625 C 177.605469 75.332031 177.773438 74.402344 178.101562 73.632812 C 178.214844 73.367188 178.476562 72.753906 178.683594 72.273438 C 179.300781 70.824219 179.5625 69.824219 179.628906 68.660156 C 179.679688 67.726562 179.648438 67.410156 179.355469 65.933594 C 179.042969 64.371094 179.023438 64.164062 179.074219 62.765625 C 179.101562 61.941406 179.203125 60.851562 179.300781 60.34375 C 179.4375 59.621094 179.464844 59.097656 179.417969 57.925781 C 179.351562 56.09375 179.082031 54.898438 178.273438 52.820312 C 177.960938 52.027344 177.710938 51.351562 177.710938 51.320312 C 177.710938 51.117188 179.050781 51.722656 179.730469 52.226562 C 180.296875 52.652344 180.996094 54.613281 181.371094 56.824219 C 181.507812 57.65625 181.546875 58.839844 181.582031 63.414062 C 181.613281 67.148438 181.589844 69.226562 181.515625 69.710938 C 181.453125 70.105469 181.148438 71.15625 180.835938 72.046875 C 179.890625 74.742188 179.824219 75.050781 179.820312 76.757812 C 179.820312 78.1875 179.835938 78.308594 180.203125 79.578125 C 181.304688 83.410156 181.3125 86.316406 180.230469 88.433594 C 178.175781 92.4375 177.902344 93.164062 177.894531 94.621094 C 177.886719 95.726562 178.0625 96.226562 179.144531 98.183594 C 181.214844 101.917969 181.671875 103.855469 181.78125 109.316406 C 181.847656 112.578125 181.789062 113.152344 181.136719 115.78125 L 180.777344 117.234375 L 179.738281 118.863281 C 178.445312 120.886719 177.644531 121.914062 176.785156 122.636719 C 175.976562 123.316406 174.863281 124.042969 174.164062 124.347656 L 173.652344 124.566406 L 149.003906 125.148438 C 135.449219 125.46875 98.496094 126.34375 66.894531 127.09375 C 35.289062 127.839844 9.039062 128.453125 8.558594 128.453125 C 7.816406 128.453125 7.601562 128.417969 7.121094 128.210938 Z M 26.058594 66.148438 C 24.792969 66 23.46875 65.460938 22.808594 64.828125 C 22.570312 64.597656 22.234375 64.277344 22.066406 64.113281 C 21.894531 63.953125 21.730469 63.761719 21.691406 63.6875 C 21.65625 63.613281 21.660156 63.113281 21.703125 62.578125 C 21.761719 61.804688 21.835938 61.5 22.050781 61.09375 C 22.199219 60.816406 22.320312 60.511719 22.320312 60.414062 C 22.320312 60.074219 22.839844 59.761719 23.585938 59.648438 C 23.964844 59.59375 24.390625 59.507812 24.53125 59.464844 L 24.785156 59.382812 L 24.785156 59.996094 C 24.785156 60.332031 24.742188 60.609375 24.6875 60.609375 C 24.464844 60.609375 23.8125 61.207031 23.589844 61.621094 C 23.304688 62.148438 23.265625 62.996094 23.507812 63.492188 C 23.804688 64.105469 24.511719 64.570312 25.597656 64.875 C 26.273438 65.066406 27.136719 65.019531 27.726562 64.761719 C 29.015625 64.195312 30.027344 62.519531 29.460938 61.878906 C 29.351562 61.753906 29.3125 61.449219 29.308594 60.710938 L 29.304688 59.710938 L 29.675781 59.769531 C 30.15625 59.847656 30.820312 60.222656 30.902344 60.464844 C 30.9375 60.566406 31.066406 60.832031 31.183594 61.050781 C 31.410156 61.457031 31.449219 61.929688 31.347656 63.027344 C 31.296875 63.558594 31.15625 63.886719 30.921875 64.015625 C 30.851562 64.054688 30.621094 64.304688 30.410156 64.578125 C 29.816406 65.332031 28.570312 66 27.558594 66.109375 C 27.304688 66.136719 26.980469 66.171875 26.839844 66.1875 C 26.699219 66.199219 26.347656 66.183594 26.058594 66.148438 Z M 156.550781 65.273438 C 156.296875 65.238281 155.742188 65.128906 155.320312 65.023438 C 154.894531 64.921875 154.429688 64.816406 154.285156 64.792969 C 153.953125 64.738281 153.171875 64.257812 153.097656 64.058594 C 153.066406 63.976562 152.882812 63.632812 152.6875 63.292969 C 152.03125 62.140625 152.019531 61.121094 152.648438 60.027344 C 152.820312 59.730469 152.957031 59.421875 152.957031 59.34375 C 152.957031 59.164062 153.699219 58.699219 154.09375 58.636719 C 154.257812 58.609375 154.535156 58.5625 154.703125 58.535156 L 155.011719 58.484375 L 155.011719 59.792969 L 154.558594 60.179688 C 153.53125 61.0625 153.566406 62.675781 154.628906 63.371094 C 155.183594 63.734375 156.113281 64.054688 156.75 64.105469 C 157.582031 64.167969 158.265625 63.957031 158.945312 63.425781 C 160.035156 62.574219 160.40625 61.429688 159.8125 60.761719 C 159.542969 60.460938 159.53125 60.398438 159.53125 59.480469 L 159.53125 58.515625 L 160.207031 58.824219 C 160.578125 58.992188 160.90625 59.195312 160.941406 59.277344 C 160.976562 59.355469 161.152344 59.5625 161.332031 59.738281 C 161.792969 60.183594 161.925781 60.59375 161.867188 61.390625 C 161.816406 62.117188 161.488281 62.929688 160.960938 63.640625 C 160.796875 63.863281 160.660156 64.101562 160.660156 64.167969 C 160.660156 64.339844 159.984375 64.820312 159.65625 64.882812 C 159.503906 64.910156 159.078125 65.007812 158.710938 65.09375 C 157.890625 65.289062 157.164062 65.347656 156.550781 65.273438 Z M 156.550781 65.273438 " fill-opacity="1" fill-rule="nonzero"/></g></g></g></g></g><g transform="matrix(1, 0, 0, 1, 14, 67)"><g clip-path="url(#2e5537a522)"><g fill="#ff8d55" fill-opacity="0.4"><g transform="translate(0.366832, 20.760179)"><g><path d="M 17.765625 -16.453125 L 21.140625 -16.453125 L 17.828125 0 L 14.46875 0 L 11.296875 -10.71875 L 8.140625 0 L 4.765625 0 L 1.4375 -16.453125 L 4.8125 -16.453125 L 6.765625 -6.796875 L 9.59375 -16.453125 L 9.59375 -16.484375 L 12.984375 -16.484375 L 15.84375 -6.796875 Z M 17.765625 -16.453125 "/></g></g></g><g fill="#ff8d55" fill-opacity="0.4"><g transform="translate(22.938665, 20.760179)"><g><path d="M 10.96875 -13.390625 L 4.515625 -13.390625 L 4.515625 -9.78125 L 8.359375 -9.78125 L 8.359375 -6.71875 L 4.515625 -6.71875 L 4.515625 -3.0625 L 10.96875 -3.0625 L 10.96875 0 L 1.4375 0 L 1.4375 -16.453125 L 10.96875 -16.453125 Z M 10.96875 -13.390625 "/></g></g></g><g fill="#ff8d55" fill-opacity="0.4"><g transform="translate(35.343928, 20.760179)"><g><path d="M 4.5 -3.0625 L 10.953125 -3.0625 L 10.953125 0 L 1.4375 0 L 1.4375 -16.4375 L 4.5 -16.4375 Z M 4.5 -3.0625 "/></g></g></g><g fill="#ff8d55" fill-opacity="0.4"><g transform="translate(47.728654, 20.760179)"><g><path d="M 13.484375 -4.578125 L 15.796875 -2.28125 C 15.046875 -1.53125 14.15625 -0.929688 13.125 -0.484375 C 12.101562 -0.0351562 11.007812 0.1875 9.84375 0.1875 C 8.675781 0.1875 7.582031 -0.03125 6.5625 -0.46875 C 5.550781 -0.90625 4.660156 -1.507812 3.890625 -2.28125 C 3.128906 -3.050781 2.53125 -3.941406 2.09375 -4.953125 C 1.65625 -5.960938 1.4375 -7.050781 1.4375 -8.21875 C 1.4375 -9.382812 1.65625 -10.472656 2.09375 -11.484375 C 2.53125 -12.492188 3.128906 -13.382812 3.890625 -14.15625 C 4.660156 -14.925781 5.550781 -15.53125 6.5625 -15.96875 C 7.582031 -16.40625 8.675781 -16.625 9.84375 -16.625 C 11.007812 -16.625 12.101562 -16.40625 13.125 -15.96875 C 14.15625 -15.53125 15.046875 -14.925781 15.796875 -14.15625 L 13.484375 -11.859375 C 13.054688 -12.359375 12.53125 -12.753906 11.90625 -13.046875 C 11.28125 -13.335938 10.59375 -13.484375 9.84375 -13.484375 C 8.882812 -13.484375 8.03125 -13.242188 7.28125 -12.765625 C 6.539062 -12.296875 5.957031 -11.660156 5.53125 -10.859375 C 5.101562 -10.066406 4.890625 -9.1875 4.890625 -8.21875 C 4.890625 -7.257812 5.101562 -6.378906 5.53125 -5.578125 C 5.957031 -4.773438 6.539062 -4.132812 7.28125 -3.65625 C 8.03125 -3.1875 8.882812 -2.953125 9.84375 -2.953125 C 10.59375 -2.953125 11.28125 -3.097656 11.90625 -3.390625 C 12.53125 -3.679688 13.054688 -4.078125 13.484375 -4.578125 Z M 13.484375 -4.578125 "/></g></g></g><g fill="#ff8d55" fill-opacity="0.4"><g transform="translate(64.960468, 20.760179)"><g><path d="M 9.125 -16.640625 C 10.289062 -16.640625 11.378906 -16.421875 12.390625 -15.984375 C 13.398438 -15.546875 14.289062 -14.941406 15.0625 -14.171875 C 15.832031 -13.410156 16.4375 -12.519531 16.875 -11.5 C 17.3125 -10.488281 17.53125 -9.398438 17.53125 -8.234375 C 17.53125 -7.078125 17.3125 -5.988281 16.875 -4.96875 C 16.4375 -3.957031 15.832031 -3.066406 15.0625 -2.296875 C 14.289062 -1.535156 13.398438 -0.929688 12.390625 -0.484375 C 11.378906 -0.046875 10.289062 0.171875 9.125 0.171875 C 7.957031 0.171875 6.863281 -0.046875 5.84375 -0.484375 C 4.832031 -0.929688 3.941406 -1.535156 3.171875 -2.296875 C 2.410156 -3.066406 1.8125 -3.957031 1.375 -4.96875 C 0.9375 -5.988281 0.71875 -7.078125 0.71875 -8.234375 C 0.71875 -9.398438 0.9375 -10.488281 1.375 -11.5 C 1.8125 -12.519531 2.410156 -13.410156 3.171875 -14.171875 C 3.941406 -14.941406 4.832031 -15.546875 5.84375 -15.984375 C 6.863281 -16.421875 7.957031 -16.640625 9.125 -16.640625 Z M 9.125 -13.5 C 8.164062 -13.5 7.3125 -13.257812 6.5625 -12.78125 C 5.8125 -12.3125 5.222656 -11.679688 4.796875 -10.890625 C 4.378906 -10.097656 4.171875 -9.210938 4.171875 -8.234375 C 4.171875 -7.273438 4.378906 -6.394531 4.796875 -5.59375 C 5.222656 -4.789062 5.8125 -4.15625 6.5625 -3.6875 C 7.3125 -3.21875 8.164062 -2.984375 9.125 -2.984375 C 10.09375 -2.984375 10.953125 -3.21875 11.703125 -3.6875 C 12.453125 -4.15625 13.035156 -4.789062 13.453125 -5.59375 C 13.878906 -6.394531 14.09375 -7.273438 14.09375 -8.234375 C 14.09375 -9.210938 13.878906 -10.097656 13.453125 -10.890625 C 13.035156 -11.679688 12.453125 -12.3125 11.703125 -12.78125 C 10.953125 -13.257812 10.09375 -13.5 9.125 -13.5 Z M 9.125 -13.5 "/></g></g></g><g fill="#ff8d55" fill-opacity="0.4"><g transform="translate(83.19867, 20.760179)"><g><path d="M 15.125 -16.4375 L 15.125 0 L 12.0625 0 L 12.0625 -9.125 L 9.96875 -4.125 L 6.59375 -4.125 L 4.515625 -9.078125 L 4.515625 0 L 1.4375 0 L 1.4375 -16.4375 L 4.828125 -16.4375 L 8.28125 -8.15625 L 11.75 -16.4375 Z M 15.125 -16.4375 "/></g></g></g><g fill="#ff8d55" fill-opacity="0.4"><g transform="translate(99.752708, 20.760179)"><g><path d="M 10.96875 -13.390625 L 4.515625 -13.390625 L 4.515625 -9.78125 L 8.359375 -9.78125 L 8.359375 -6.71875 L 4.515625 -6.71875 L 4.515625 -3.0625 L 10.96875 -3.0625 L 10.96875 0 L 1.4375 0 L 1.4375 -16.453125 L 10.96875 -16.453125 Z M 10.96875 -13.390625 "/></g></g></g><g fill="#ff8d55" fill-opacity="0.4"><g transform="translate(112.157971, 20.760179)"><g/></g></g><g fill="#ff8d55" fill-opacity="0.4"><g transform="translate(118.319523, 20.760179)"><g><path d="M 13.78125 -16.4375 L 13.78125 -13.375 L 9.140625 -13.375 L 9.140625 0 L 6.078125 0 L 6.078125 -13.375 L 1.4375 -13.375 L 1.4375 -16.4375 Z M 13.78125 -16.4375 "/></g></g></g><g fill="#ff8d55" fill-opacity="0.4"><g transform="translate(133.53856, 20.760179)"><g><path d="M 9.125 -16.640625 C 10.289062 -16.640625 11.378906 -16.421875 12.390625 -15.984375 C 13.398438 -15.546875 14.289062 -14.941406 15.0625 -14.171875 C 15.832031 -13.410156 16.4375 -12.519531 16.875 -11.5 C 17.3125 -10.488281 17.53125 -9.398438 17.53125 -8.234375 C 17.53125 -7.078125 17.3125 -5.988281 16.875 -4.96875 C 16.4375 -3.957031 15.832031 -3.066406 15.0625 -2.296875 C 14.289062 -1.535156 13.398438 -0.929688 12.390625 -0.484375 C 11.378906 -0.046875 10.289062 0.171875 9.125 0.171875 C 7.957031 0.171875 6.863281 -0.046875 5.84375 -0.484375 C 4.832031 -0.929688 3.941406 -1.535156 3.171875 -2.296875 C 2.410156 -3.066406 1.8125 -3.957031 1.375 -4.96875 C 0.9375 -5.988281 0.71875 -7.078125 0.71875 -8.234375 C 0.71875 -9.398438 0.9375 -10.488281 1.375 -11.5 C 1.8125 -12.519531 2.410156 -13.410156 3.171875 -14.171875 C 3.941406 -14.941406 4.832031 -15.546875 5.84375 -15.984375 C 6.863281 -16.421875 7.957031 -16.640625 9.125 -16.640625 Z M 9.125 -13.5 C 8.164062 -13.5 7.3125 -13.257812 6.5625 -12.78125 C 5.8125 -12.3125 5.222656 -11.679688 4.796875 -10.890625 C 4.378906 -10.097656 4.171875 -9.210938 4.171875 -8.234375 C 4.171875 -7.273438 4.378906 -6.394531 4.796875 -5.59375 C 5.222656 -4.789062 5.8125 -4.15625 6.5625 -3.6875 C 7.3125 -3.21875 8.164062 -2.984375 9.125 -2.984375 C 10.09375 -2.984375 10.953125 -3.21875 11.703125 -3.6875 C 12.453125 -4.15625 13.035156 -4.789062 13.453125 -5.59375 C 13.878906 -6.394531 14.09375 -7.273438 14.09375 -8.234375 C 14.09375 -9.210938 13.878906 -10.097656 13.453125 -10.890625 C 13.035156 -11.679688 12.453125 -12.3125 11.703125 -12.78125 C 10.953125 -13.257812 10.09375 -13.5 9.125 -13.5 Z M 9.125 -13.5 "/></g></g></g><g fill="#e2a165" fill-opacity="1"><g transform="translate(1.565428, 20.300079)"><g><path d="M 17.765625 -16.453125 L 21.140625 -16.453125 L 17.828125 0 L 14.46875 0 L 11.296875 -10.71875 L 8.140625 0 L 4.765625 0 L 1.4375 -16.453125 L 4.8125 -16.453125 L 6.765625 -6.796875 L 9.59375 -16.453125 L 9.59375 -16.484375 L 12.984375 -16.484375 L 15.84375 -6.796875 Z M 17.765625 -16.453125 "/></g></g></g><g fill="#e2a165" fill-opacity="1"><g transform="translate(24.137261, 20.300079)"><g><path d="M 10.96875 -13.390625 L 4.515625 -13.390625 L 4.515625 -9.78125 L 8.359375 -9.78125 L 8.359375 -6.71875 L 4.515625 -6.71875 L 4.515625 -3.0625 L 10.96875 -3.0625 L 10.96875 0 L 1.4375 0 L 1.4375 -16.453125 L 10.96875 -16.453125 Z M 10.96875 -13.390625 "/></g></g></g><g fill="#e2a165" fill-opacity="1"><g transform="translate(36.542524, 20.300079)"><g><path d="M 4.5 -3.0625 L 10.953125 -3.0625 L 10.953125 0 L 1.4375 0 L 1.4375 -16.4375 L 4.5 -16.4375 Z M 4.5 -3.0625 "/></g></g></g><g fill="#e2a165" fill-opacity="1"><g transform="translate(48.92725, 20.300079)"><g><path d="M 13.484375 -4.578125 L 15.796875 -2.28125 C 15.046875 -1.53125 14.15625 -0.929688 13.125 -0.484375 C 12.101562 -0.0351562 11.007812 0.1875 9.84375 0.1875 C 8.675781 0.1875 7.582031 -0.03125 6.5625 -0.46875 C 5.550781 -0.90625 4.660156 -1.507812 3.890625 -2.28125 C 3.128906 -3.050781 2.53125 -3.941406 2.09375 -4.953125 C 1.65625 -5.960938 1.4375 -7.050781 1.4375 -8.21875 C 1.4375 -9.382812 1.65625 -10.472656 2.09375 -11.484375 C 2.53125 -12.492188 3.128906 -13.382812 3.890625 -14.15625 C 4.660156 -14.925781 5.550781 -15.53125 6.5625 -15.96875 C 7.582031 -16.40625 8.675781 -16.625 9.84375 -16.625 C 11.007812 -16.625 12.101562 -16.40625 13.125 -15.96875 C 14.15625 -15.53125 15.046875 -14.925781 15.796875 -14.15625 L 13.484375 -11.859375 C 13.054688 -12.359375 12.53125 -12.753906 11.90625 -13.046875 C 11.28125 -13.335938 10.59375 -13.484375 9.84375 -13.484375 C 8.882812 -13.484375 8.03125 -13.242188 7.28125 -12.765625 C 6.539062 -12.296875 5.957031 -11.660156 5.53125 -10.859375 C 5.101562 -10.066406 4.890625 -9.1875 4.890625 -8.21875 C 4.890625 -7.257812 5.101562 -6.378906 5.53125 -5.578125 C 5.957031 -4.773438 6.539062 -4.132812 7.28125 -3.65625 C 8.03125 -3.1875 8.882812 -2.953125 9.84375 -2.953125 C 10.59375 -2.953125 11.28125 -3.097656 11.90625 -3.390625 C 12.53125 -3.679688 13.054688 -4.078125 13.484375 -4.578125 Z M 13.484375 -4.578125 "/></g></g></g><g fill="#e2a165" fill-opacity="1"><g transform="translate(66.159064, 20.300079)"><g><path d="M 9.125 -16.640625 C 10.289062 -16.640625 11.378906 -16.421875 12.390625 -15.984375 C 13.398438 -15.546875 14.289062 -14.941406 15.0625 -14.171875 C 15.832031 -13.410156 16.4375 -12.519531 16.875 -11.5 C 17.3125 -10.488281 17.53125 -9.398438 17.53125 -8.234375 C 17.53125 -7.078125 17.3125 -5.988281 16.875 -4.96875 C 16.4375 -3.957031 15.832031 -3.066406 15.0625 -2.296875 C 14.289062 -1.535156 13.398438 -0.929688 12.390625 -0.484375 C 11.378906 -0.046875 10.289062 0.171875 9.125 0.171875 C 7.957031 0.171875 6.863281 -0.046875 5.84375 -0.484375 C 4.832031 -0.929688 3.941406 -1.535156 3.171875 -2.296875 C 2.410156 -3.066406 1.8125 -3.957031 1.375 -4.96875 C 0.9375 -5.988281 0.71875 -7.078125 0.71875 -8.234375 C 0.71875 -9.398438 0.9375 -10.488281 1.375 -11.5 C 1.8125 -12.519531 2.410156 -13.410156 3.171875 -14.171875 C 3.941406 -14.941406 4.832031 -15.546875 5.84375 -15.984375 C 6.863281 -16.421875 7.957031 -16.640625 9.125 -16.640625 Z M 9.125 -13.5 C 8.164062 -13.5 7.3125 -13.257812 6.5625 -12.78125 C 5.8125 -12.3125 5.222656 -11.679688 4.796875 -10.890625 C 4.378906 -10.097656 4.171875 -9.210938 4.171875 -8.234375 C 4.171875 -7.273438 4.378906 -6.394531 4.796875 -5.59375 C 5.222656 -4.789062 5.8125 -4.15625 6.5625 -3.6875 C 7.3125 -3.21875 8.164062 -2.984375 9.125 -2.984375 C 10.09375 -2.984375 10.953125 -3.21875 11.703125 -3.6875 C 12.453125 -4.15625 13.035156 -4.789062 13.453125 -5.59375 C 13.878906 -6.394531 14.09375 -7.273438 14.09375 -8.234375 C 14.09375 -9.210938 13.878906 -10.097656 13.453125 -10.890625 C 13.035156 -11.679688 12.453125 -12.3125 11.703125 -12.78125 C 10.953125 -13.257812 10.09375 -13.5 9.125 -13.5 Z M 9.125 -13.5 "/></g></g></g><g fill="#e2a165" fill-opacity="1"><g transform="translate(84.397266, 20.300079)"><g><path d="M 15.125 -16.4375 L 15.125 0 L 12.0625 0 L 12.0625 -9.125 L 9.96875 -4.125 L 6.59375 -4.125 L 4.515625 -9.078125 L 4.515625 0 L 1.4375 0 L 1.4375 -16.4375 L 4.828125 -16.4375 L 8.28125 -8.15625 L 11.75 -16.4375 Z M 15.125 -16.4375 "/></g></g></g><g fill="#e2a165" fill-opacity="1"><g transform="translate(100.951304, 20.300079)"><g><path d="M 10.96875 -13.390625 L 4.515625 -13.390625 L 4.515625 -9.78125 L 8.359375 -9.78125 L 8.359375 -6.71875 L 4.515625 -6.71875 L 4.515625 -3.0625 L 10.96875 -3.0625 L 10.96875 0 L 1.4375 0 L 1.4375 -16.453125 L 10.96875 -16.453125 Z M 10.96875 -13.390625 "/></g></g></g><g fill="#e2a165" fill-opacity="1"><g transform="translate(113.356567, 20.300079)"><g/></g></g><g fill="#e2a165" fill-opacity="1"><g transform="translate(119.518119, 20.300079)"><g><path d="M 13.78125 -16.4375 L 13.78125 -13.375 L 9.140625 -13.375 L 9.140625 0 L 6.078125 0 L 6.078125 -13.375 L 1.4375 -13.375 L 1.4375 -16.4375 Z M 13.78125 -16.4375 "/></g></g></g><g fill="#e2a165" fill-opacity="1"><g transform="translate(134.737156, 20.300079)"><g><path d="M 9.125 -16.640625 C 10.289062 -16.640625 11.378906 -16.421875 12.390625 -15.984375 C 13.398438 -15.546875 14.289062 -14.941406 15.0625 -14.171875 C 15.832031 -13.410156 16.4375 -12.519531 16.875 -11.5 C 17.3125 -10.488281 17.53125 -9.398438 17.53125 -8.234375 C 17.53125 -7.078125 17.3125 -5.988281 16.875 -4.96875 C 16.4375 -3.957031 15.832031 -3.066406 15.0625 -2.296875 C 14.289062 -1.535156 13.398438 -0.929688 12.390625 -0.484375 C 11.378906 -0.046875 10.289062 0.171875 9.125 0.171875 C 7.957031 0.171875 6.863281 -0.046875 5.84375 -0.484375 C 4.832031 -0.929688 3.941406 -1.535156 3.171875 -2.296875 C 2.410156 -3.066406 1.8125 -3.957031 1.375 -4.96875 C 0.9375 -5.988281 0.71875 -7.078125 0.71875 -8.234375 C 0.71875 -9.398438 0.9375 -10.488281 1.375 -11.5 C 1.8125 -12.519531 2.410156 -13.410156 3.171875 -14.171875 C 3.941406 -14.941406 4.832031 -15.546875 5.84375 -15.984375 C 6.863281 -16.421875 7.957031 -16.640625 9.125 -16.640625 Z M 9.125 -13.5 C 8.164062 -13.5 7.3125 -13.257812 6.5625 -12.78125 C 5.8125 -12.3125 5.222656 -11.679688 4.796875 -10.890625 C 4.378906 -10.097656 4.171875 -9.210938 4.171875 -8.234375 C 4.171875 -7.273438 4.378906 -6.394531 4.796875 -5.59375 C 5.222656 -4.789062 5.8125 -4.15625 6.5625 -3.6875 C 7.3125 -3.21875 8.164062 -2.984375 9.125 -2.984375 C 10.09375 -2.984375 10.953125 -3.21875 11.703125 -3.6875 C 12.453125 -4.15625 13.035156 -4.789062 13.453125 -5.59375 C 13.878906 -6.394531 14.09375 -7.273438 14.09375 -8.234375 C 14.09375 -9.210938 13.878906 -10.097656 13.453125 -10.890625 C 13.035156 -11.679688 12.453125 -12.3125 11.703125 -12.78125 C 10.953125 -13.257812 10.09375 -13.5 9.125 -13.5 Z M 9.125 -13.5 "/></g></g></g></g></g><g transform="matrix(1, 0, 0, 1, 11, 92)"><g clip-path="url(#62c5bbd72a)"><g fill="#ffffff" fill-opacity="0.4"><g transform="translate(0.828016, 18.755089)"><g><path d="M 12.921875 -14.03125 L 12.921875 0 L 10.296875 0 L 10.296875 -7.796875 L 8.515625 -3.53125 L 5.625 -3.53125 L 3.859375 -7.75 L 3.859375 0 L 1.234375 0 L 1.234375 -14.03125 L 4.125 -14.03125 L 7.078125 -6.96875 L 10.03125 -14.03125 Z M 12.921875 -14.03125 "/></g></g></g><g fill="#ffffff" fill-opacity="0.4"><g transform="translate(14.96874, 18.755089)"><g><path d="M 9.296875 -14.03125 L 11.921875 -14.03125 L 11.921875 -4.859375 C 11.921875 -4.148438 11.785156 -3.476562 11.515625 -2.84375 C 11.242188 -2.21875 10.867188 -1.664062 10.390625 -1.1875 C 9.921875 -0.71875 9.375 -0.347656 8.75 -0.078125 C 8.132812 0.179688 7.46875 0.3125 6.75 0.3125 L 6.40625 0.3125 C 5.6875 0.3125 5.015625 0.179688 4.390625 -0.078125 C 3.765625 -0.347656 3.210938 -0.71875 2.734375 -1.1875 C 2.265625 -1.664062 1.894531 -2.21875 1.625 -2.84375 C 1.363281 -3.476562 1.234375 -4.148438 1.234375 -4.859375 L 1.234375 -14.03125 L 3.859375 -14.03125 L 3.859375 -4.859375 C 3.859375 -4.390625 3.972656 -3.957031 4.203125 -3.5625 C 4.429688 -3.175781 4.738281 -2.867188 5.125 -2.640625 C 5.507812 -2.410156 5.9375 -2.296875 6.40625 -2.296875 L 6.75 -2.296875 C 7.21875 -2.296875 7.644531 -2.410156 8.03125 -2.640625 C 8.414062 -2.867188 8.722656 -3.175781 8.953125 -3.5625 C 9.179688 -3.957031 9.296875 -4.390625 9.296875 -4.859375 Z M 9.296875 -14.03125 "/></g></g></g><g fill="#ffffff" fill-opacity="0.4"><g transform="translate(28.109437, 18.755089)"><g><path d="M 12.1875 -8.78125 C 12.1875 -7.894531 12.066406 -7.078125 11.828125 -6.328125 C 11.585938 -5.585938 11.175781 -4.972656 10.59375 -4.484375 L 12.1875 0 L 9.4375 0 L 8.171875 -3.546875 C 7.890625 -3.503906 7.59375 -3.484375 7.28125 -3.484375 L 3.859375 -3.484375 L 3.859375 0 L 1.234375 0 L 1.234375 -14.03125 L 7.28125 -14.03125 C 8.476562 -14.03125 9.4375 -13.789062 10.15625 -13.3125 C 10.875 -12.84375 11.390625 -12.210938 11.703125 -11.421875 C 12.023438 -10.628906 12.1875 -9.75 12.1875 -8.78125 Z M 3.859375 -6.125 L 7.28125 -6.125 C 8.1875 -6.125 8.785156 -6.3125 9.078125 -6.6875 C 9.398438 -7.082031 9.5625 -7.78125 9.5625 -8.78125 C 9.5625 -9.71875 9.390625 -10.40625 9.046875 -10.84375 C 9.015625 -10.894531 8.941406 -10.960938 8.828125 -11.046875 C 8.710938 -11.140625 8.535156 -11.222656 8.296875 -11.296875 C 8.054688 -11.378906 7.71875 -11.421875 7.28125 -11.421875 L 3.859375 -11.421875 Z M 3.859375 -6.125 "/></g></g></g><g fill="#ffffff" fill-opacity="0.4"><g transform="translate(41.530844, 18.755089)"><g><path d="M 7.046875 0.171875 C 6.765625 0.171875 6.367188 0.140625 5.859375 0.078125 C 5.347656 0.0234375 4.796875 -0.0976562 4.203125 -0.296875 C 3.609375 -0.503906 3.046875 -0.828125 2.515625 -1.265625 C 2.003906 -1.679688 1.578125 -2.148438 1.234375 -2.671875 L 3.375 -4.125 C 3.488281 -3.957031 3.601562 -3.800781 3.71875 -3.65625 C 3.84375 -3.519531 3.984375 -3.394531 4.140625 -3.28125 C 4.429688 -3.03125 4.753906 -2.847656 5.109375 -2.734375 C 5.472656 -2.617188 5.8125 -2.535156 6.125 -2.484375 C 6.445312 -2.441406 6.710938 -2.421875 6.921875 -2.421875 C 7.140625 -2.421875 7.25 -2.421875 7.25 -2.421875 L 7.328125 -2.421875 C 8.054688 -2.421875 8.617188 -2.578125 9.015625 -2.890625 C 9.410156 -3.210938 9.625 -3.5625 9.65625 -3.9375 C 9.675781 -4.34375 9.457031 -4.75 9 -5.15625 C 8.550781 -5.5625 7.816406 -5.835938 6.796875 -5.984375 C 5.242188 -6.148438 4.015625 -6.65625 3.109375 -7.5 C 2.648438 -7.914062 2.304688 -8.390625 2.078125 -8.921875 C 1.847656 -9.453125 1.757812 -10 1.8125 -10.5625 C 1.863281 -11.207031 2.097656 -11.816406 2.515625 -12.390625 C 2.941406 -12.972656 3.566406 -13.4375 4.390625 -13.78125 C 5.210938 -14.125 6.25 -14.265625 7.5 -14.203125 C 8.050781 -14.203125 8.601562 -14.128906 9.15625 -13.984375 C 9.71875 -13.847656 10.238281 -13.664062 10.71875 -13.4375 C 11.195312 -13.21875 11.601562 -12.984375 11.9375 -12.734375 L 10.421875 -10.640625 C 10.210938 -10.796875 9.941406 -10.945312 9.609375 -11.09375 C 9.273438 -11.238281 8.921875 -11.359375 8.546875 -11.453125 C 8.171875 -11.554688 7.804688 -11.609375 7.453125 -11.609375 L 7.40625 -11.609375 C 6.445312 -11.660156 5.707031 -11.550781 5.1875 -11.28125 C 4.675781 -11.007812 4.410156 -10.703125 4.390625 -10.359375 C 4.367188 -10.023438 4.488281 -9.734375 4.75 -9.484375 C 5.007812 -9.234375 5.347656 -9.03125 5.765625 -8.875 C 6.191406 -8.71875 6.628906 -8.609375 7.078125 -8.546875 L 7.109375 -8.546875 C 8.347656 -8.390625 9.351562 -8.0625 10.125 -7.5625 C 10.894531 -7.0625 11.445312 -6.46875 11.78125 -5.78125 C 12.125 -5.101562 12.273438 -4.425781 12.234375 -3.75 C 12.191406 -3.113281 11.972656 -2.492188 11.578125 -1.890625 C 11.191406 -1.285156 10.644531 -0.789062 9.9375 -0.40625 C 9.226562 -0.03125 8.375 0.160156 7.375 0.171875 Z M 7.046875 0.171875 "/></g></g></g><g fill="#ffffff" fill-opacity="0.4"><g transform="translate(54.987339, 18.755089)"><g><path d="M 9.5625 -13.9375 L 12.171875 -13.9375 L 12.171875 0.125 L 9.5625 0.125 L 9.5625 -4.90625 L 3.859375 -4.90625 L 3.859375 0.125 L 1.234375 0.125 L 1.234375 -13.9375 L 3.859375 -13.9375 L 3.859375 -7.53125 L 9.5625 -7.53125 Z M 9.5625 -13.9375 "/></g></g></g><g fill="#ffffff" fill-opacity="0.4"><g transform="translate(68.391201, 18.755089)"><g><path d="M 3.859375 -0.046875 L 3.859375 -14.03125 L 1.234375 -14.03125 L 1.234375 -0.046875 Z M 3.859375 -0.046875 "/></g></g></g><g fill="#ffffff" fill-opacity="0.4"><g transform="translate(73.479054, 18.755089)"><g><path d="M 5.828125 -14.03125 C 6.722656 -14.03125 7.550781 -13.847656 8.3125 -13.484375 C 9.082031 -13.128906 9.753906 -12.628906 10.328125 -11.984375 C 10.898438 -11.335938 11.347656 -10.585938 11.671875 -9.734375 C 11.992188 -8.890625 12.15625 -7.984375 12.15625 -7.015625 C 12.15625 -6.046875 12 -5.132812 11.6875 -4.28125 C 11.382812 -3.4375 10.945312 -2.691406 10.375 -2.046875 C 9.8125 -1.410156 9.144531 -0.910156 8.375 -0.546875 C 7.601562 -0.179688 6.753906 0 5.828125 0 L 1.234375 0 L 1.234375 -14.03125 Z M 5.828125 -11.421875 L 3.84375 -11.421875 L 3.84375 -2.609375 L 5.828125 -2.609375 C 6.484375 -2.609375 7.019531 -2.738281 7.4375 -3 C 7.863281 -3.257812 8.191406 -3.523438 8.421875 -3.796875 C 8.796875 -4.203125 9.078125 -4.679688 9.265625 -5.234375 C 9.453125 -5.796875 9.546875 -6.390625 9.546875 -7.015625 C 9.546875 -7.847656 9.378906 -8.59375 9.046875 -9.25 C 8.722656 -9.914062 8.28125 -10.441406 7.71875 -10.828125 C 7.15625 -11.222656 6.523438 -11.421875 5.828125 -11.421875 Z M 5.828125 -11.421875 "/></g></g></g><g fill="#ffffff" fill-opacity="0.4"><g transform="translate(86.865372, 18.755089)"><g><path d="M 1.453125 -9.515625 C 1.722656 -10.460938 1.957031 -11.320312 2.15625 -12.09375 C 2.363281 -12.875 2.535156 -13.519531 2.671875 -14.03125 L 1.015625 -14.03125 C 1.015625 -14.03125 0.984375 -13.910156 0.921875 -13.671875 C 0.867188 -13.429688 0.796875 -13.117188 0.703125 -12.734375 C 0.617188 -12.359375 0.53125 -11.960938 0.4375 -11.546875 C 0.34375 -11.128906 0.253906 -10.738281 0.171875 -10.375 C 0.0859375 -10.007812 0.03125 -9.722656 0 -9.515625 Z M 1.453125 -9.515625 "/></g></g></g><g fill="#ffffff" fill-opacity="0.4"><g transform="translate(89.532109, 18.755089)"><g><path d="M 7.046875 0.171875 C 6.765625 0.171875 6.367188 0.140625 5.859375 0.078125 C 5.347656 0.0234375 4.796875 -0.0976562 4.203125 -0.296875 C 3.609375 -0.503906 3.046875 -0.828125 2.515625 -1.265625 C 2.003906 -1.679688 1.578125 -2.148438 1.234375 -2.671875 L 3.375 -4.125 C 3.488281 -3.957031 3.601562 -3.800781 3.71875 -3.65625 C 3.84375 -3.519531 3.984375 -3.394531 4.140625 -3.28125 C 4.429688 -3.03125 4.753906 -2.847656 5.109375 -2.734375 C 5.472656 -2.617188 5.8125 -2.535156 6.125 -2.484375 C 6.445312 -2.441406 6.710938 -2.421875 6.921875 -2.421875 C 7.140625 -2.421875 7.25 -2.421875 7.25 -2.421875 L 7.328125 -2.421875 C 8.054688 -2.421875 8.617188 -2.578125 9.015625 -2.890625 C 9.410156 -3.210938 9.625 -3.5625 9.65625 -3.9375 C 9.675781 -4.34375 9.457031 -4.75 9 -5.15625 C 8.550781 -5.5625 7.816406 -5.835938 6.796875 -5.984375 C 5.242188 -6.148438 4.015625 -6.65625 3.109375 -7.5 C 2.648438 -7.914062 2.304688 -8.390625 2.078125 -8.921875 C 1.847656 -9.453125 1.757812 -10 1.8125 -10.5625 C 1.863281 -11.207031 2.097656 -11.816406 2.515625 -12.390625 C 2.941406 -12.972656 3.566406 -13.4375 4.390625 -13.78125 C 5.210938 -14.125 6.25 -14.265625 7.5 -14.203125 C 8.050781 -14.203125 8.601562 -14.128906 9.15625 -13.984375 C 9.71875 -13.847656 10.238281 -13.664062 10.71875 -13.4375 C 11.195312 -13.21875 11.601562 -12.984375 11.9375 -12.734375 L 10.421875 -10.640625 C 10.210938 -10.796875 9.941406 -10.945312 9.609375 -11.09375 C 9.273438 -11.238281 8.921875 -11.359375 8.546875 -11.453125 C 8.171875 -11.554688 7.804688 -11.609375 7.453125 -11.609375 L 7.40625 -11.609375 C 6.445312 -11.660156 5.707031 -11.550781 5.1875 -11.28125 C 4.675781 -11.007812 4.410156 -10.703125 4.390625 -10.359375 C 4.367188 -10.023438 4.488281 -9.734375 4.75 -9.484375 C 5.007812 -9.234375 5.347656 -9.03125 5.765625 -8.875 C 6.191406 -8.71875 6.628906 -8.609375 7.078125 -8.546875 L 7.109375 -8.546875 C 8.347656 -8.390625 9.351562 -8.0625 10.125 -7.5625 C 10.894531 -7.0625 11.445312 -6.46875 11.78125 -5.78125 C 12.125 -5.101562 12.273438 -4.425781 12.234375 -3.75 C 12.191406 -3.113281 11.972656 -2.492188 11.578125 -1.890625 C 11.191406 -1.285156 10.644531 -0.789062 9.9375 -0.40625 C 9.226562 -0.03125 8.375 0.160156 7.375 0.171875 Z M 7.046875 0.171875 "/></g></g></g><g fill="#ffffff" fill-opacity="0.4"><g transform="translate(102.988604, 18.755089)"><g/></g></g><g fill="#ffffff" fill-opacity="0.4"><g transform="translate(108.2519, 18.755089)"><g><path d="M 11.515625 -3.90625 L 13.5 -1.953125 C 12.851562 -1.304688 12.085938 -0.789062 11.203125 -0.40625 C 10.328125 -0.03125 9.394531 0.15625 8.40625 0.15625 C 7.40625 0.15625 6.472656 -0.03125 5.609375 -0.40625 C 4.742188 -0.78125 3.984375 -1.296875 3.328125 -1.953125 C 2.671875 -2.609375 2.15625 -3.367188 1.78125 -4.234375 C 1.414062 -5.097656 1.234375 -6.023438 1.234375 -7.015625 C 1.234375 -8.015625 1.414062 -8.945312 1.78125 -9.8125 C 2.15625 -10.675781 2.671875 -11.4375 3.328125 -12.09375 C 3.984375 -12.75 4.742188 -13.265625 5.609375 -13.640625 C 6.472656 -14.015625 7.40625 -14.203125 8.40625 -14.203125 C 9.394531 -14.203125 10.328125 -14.015625 11.203125 -13.640625 C 12.085938 -13.265625 12.851562 -12.75 13.5 -12.09375 L 11.515625 -10.125 C 11.148438 -10.5625 10.703125 -10.898438 10.171875 -11.140625 C 9.640625 -11.390625 9.050781 -11.515625 8.40625 -11.515625 C 7.582031 -11.515625 6.851562 -11.3125 6.21875 -10.90625 C 5.582031 -10.5 5.082031 -9.957031 4.71875 -9.28125 C 4.351562 -8.601562 4.171875 -7.847656 4.171875 -7.015625 C 4.171875 -6.203125 4.351562 -5.453125 4.71875 -4.765625 C 5.082031 -4.078125 5.582031 -3.53125 6.21875 -3.125 C 6.851562 -2.726562 7.582031 -2.53125 8.40625 -2.53125 C 9.050781 -2.53125 9.640625 -2.648438 10.171875 -2.890625 C 10.703125 -3.140625 11.148438 -3.476562 11.515625 -3.90625 Z M 11.515625 -3.90625 "/></g></g></g><g fill="#ffffff" fill-opacity="0.4"><g transform="translate(122.971586, 18.755089)"><g><path d="M 9.515625 0 L 8.46875 -3.484375 L 5.015625 -3.484375 L 3.984375 0 L 1.234375 0 L 5.375 -14.03125 L 8.125 -14.03125 L 8.125 -14 L 12.25 0 Z M 5.796875 -6.109375 L 7.703125 -6.109375 L 6.75 -9.375 Z M 5.796875 -6.109375 "/></g></g></g><g fill="#ffffff" fill-opacity="0.4"><g transform="translate(136.445626, 18.755089)"><g><path d="M 9.953125 -11.40625 L 3.859375 -11.40625 L 3.859375 -7.59375 L 7.71875 -7.59375 L 7.71875 -4.96875 L 3.859375 -4.96875 L 3.859375 0 L 1.234375 0 L 1.234375 -14.03125 L 9.953125 -14.03125 Z M 9.953125 -11.40625 "/></g></g></g><g fill="#ffffff" fill-opacity="0.4"><g transform="translate(147.077484, 18.755089)"><g><path d="M 9.375 -11.4375 L 3.859375 -11.4375 L 3.859375 -8.359375 L 7.140625 -8.359375 L 7.140625 -5.734375 L 3.859375 -5.734375 L 3.859375 -2.609375 L 9.375 -2.609375 L 9.375 0 L 1.234375 0 L 1.234375 -14.0625 L 9.375 -14.0625 Z M 9.375 -11.4375 "/></g></g></g><g fill="#000000" fill-opacity="1"><g transform="translate(1.851907, 18.362052)"><g><path d="M 12.921875 -14.03125 L 12.921875 0 L 10.296875 0 L 10.296875 -7.796875 L 8.515625 -3.53125 L 5.625 -3.53125 L 3.859375 -7.75 L 3.859375 0 L 1.234375 0 L 1.234375 -14.03125 L 4.125 -14.03125 L 7.078125 -6.96875 L 10.03125 -14.03125 Z M 12.921875 -14.03125 "/></g></g></g><g fill="#000000" fill-opacity="1"><g transform="translate(15.99263, 18.362052)"><g><path d="M 9.296875 -14.03125 L 11.921875 -14.03125 L 11.921875 -4.859375 C 11.921875 -4.148438 11.785156 -3.476562 11.515625 -2.84375 C 11.242188 -2.21875 10.867188 -1.664062 10.390625 -1.1875 C 9.921875 -0.71875 9.375 -0.347656 8.75 -0.078125 C 8.132812 0.179688 7.46875 0.3125 6.75 0.3125 L 6.40625 0.3125 C 5.6875 0.3125 5.015625 0.179688 4.390625 -0.078125 C 3.765625 -0.347656 3.210938 -0.71875 2.734375 -1.1875 C 2.265625 -1.664062 1.894531 -2.21875 1.625 -2.84375 C 1.363281 -3.476562 1.234375 -4.148438 1.234375 -4.859375 L 1.234375 -14.03125 L 3.859375 -14.03125 L 3.859375 -4.859375 C 3.859375 -4.390625 3.972656 -3.957031 4.203125 -3.5625 C 4.429688 -3.175781 4.738281 -2.867188 5.125 -2.640625 C 5.507812 -2.410156 5.9375 -2.296875 6.40625 -2.296875 L 6.75 -2.296875 C 7.21875 -2.296875 7.644531 -2.410156 8.03125 -2.640625 C 8.414062 -2.867188 8.722656 -3.175781 8.953125 -3.5625 C 9.179688 -3.957031 9.296875 -4.390625 9.296875 -4.859375 Z M 9.296875 -14.03125 "/></g></g></g><g fill="#000000" fill-opacity="1"><g transform="translate(29.133327, 18.362052)"><g><path d="M 12.1875 -8.78125 C 12.1875 -7.894531 12.066406 -7.078125 11.828125 -6.328125 C 11.585938 -5.585938 11.175781 -4.972656 10.59375 -4.484375 L 12.1875 0 L 9.4375 0 L 8.171875 -3.546875 C 7.890625 -3.503906 7.59375 -3.484375 7.28125 -3.484375 L 3.859375 -3.484375 L 3.859375 0 L 1.234375 0 L 1.234375 -14.03125 L 7.28125 -14.03125 C 8.476562 -14.03125 9.4375 -13.789062 10.15625 -13.3125 C 10.875 -12.84375 11.390625 -12.210938 11.703125 -11.421875 C 12.023438 -10.628906 12.1875 -9.75 12.1875 -8.78125 Z M 3.859375 -6.125 L 7.28125 -6.125 C 8.1875 -6.125 8.785156 -6.3125 9.078125 -6.6875 C 9.398438 -7.082031 9.5625 -7.78125 9.5625 -8.78125 C 9.5625 -9.71875 9.390625 -10.40625 9.046875 -10.84375 C 9.015625 -10.894531 8.941406 -10.960938 8.828125 -11.046875 C 8.710938 -11.140625 8.535156 -11.222656 8.296875 -11.296875 C 8.054688 -11.378906 7.71875 -11.421875 7.28125 -11.421875 L 3.859375 -11.421875 Z M 3.859375 -6.125 "/></g></g></g><g fill="#000000" fill-opacity="1"><g transform="translate(42.554734, 18.362052)"><g><path d="M 7.046875 0.171875 C 6.765625 0.171875 6.367188 0.140625 5.859375 0.078125 C 5.347656 0.0234375 4.796875 -0.0976562 4.203125 -0.296875 C 3.609375 -0.503906 3.046875 -0.828125 2.515625 -1.265625 C 2.003906 -1.679688 1.578125 -2.148438 1.234375 -2.671875 L 3.375 -4.125 C 3.488281 -3.957031 3.601562 -3.800781 3.71875 -3.65625 C 3.84375 -3.519531 3.984375 -3.394531 4.140625 -3.28125 C 4.429688 -3.03125 4.753906 -2.847656 5.109375 -2.734375 C 5.472656 -2.617188 5.8125 -2.535156 6.125 -2.484375 C 6.445312 -2.441406 6.710938 -2.421875 6.921875 -2.421875 C 7.140625 -2.421875 7.25 -2.421875 7.25 -2.421875 L 7.328125 -2.421875 C 8.054688 -2.421875 8.617188 -2.578125 9.015625 -2.890625 C 9.410156 -3.210938 9.625 -3.5625 9.65625 -3.9375 C 9.675781 -4.34375 9.457031 -4.75 9 -5.15625 C 8.550781 -5.5625 7.816406 -5.835938 6.796875 -5.984375 C 5.242188 -6.148438 4.015625 -6.65625 3.109375 -7.5 C 2.648438 -7.914062 2.304688 -8.390625 2.078125 -8.921875 C 1.847656 -9.453125 1.757812 -10 1.8125 -10.5625 C 1.863281 -11.207031 2.097656 -11.816406 2.515625 -12.390625 C 2.941406 -12.972656 3.566406 -13.4375 4.390625 -13.78125 C 5.210938 -14.125 6.25 -14.265625 7.5 -14.203125 C 8.050781 -14.203125 8.601562 -14.128906 9.15625 -13.984375 C 9.71875 -13.847656 10.238281 -13.664062 10.71875 -13.4375 C 11.195312 -13.21875 11.601562 -12.984375 11.9375 -12.734375 L 10.421875 -10.640625 C 10.210938 -10.796875 9.941406 -10.945312 9.609375 -11.09375 C 9.273438 -11.238281 8.921875 -11.359375 8.546875 -11.453125 C 8.171875 -11.554688 7.804688 -11.609375 7.453125 -11.609375 L 7.40625 -11.609375 C 6.445312 -11.660156 5.707031 -11.550781 5.1875 -11.28125 C 4.675781 -11.007812 4.410156 -10.703125 4.390625 -10.359375 C 4.367188 -10.023438 4.488281 -9.734375 4.75 -9.484375 C 5.007812 -9.234375 5.347656 -9.03125 5.765625 -8.875 C 6.191406 -8.71875 6.628906 -8.609375 7.078125 -8.546875 L 7.109375 -8.546875 C 8.347656 -8.390625 9.351562 -8.0625 10.125 -7.5625 C 10.894531 -7.0625 11.445312 -6.46875 11.78125 -5.78125 C 12.125 -5.101562 12.273438 -4.425781 12.234375 -3.75 C 12.191406 -3.113281 11.972656 -2.492188 11.578125 -1.890625 C 11.191406 -1.285156 10.644531 -0.789062 9.9375 -0.40625 C 9.226562 -0.03125 8.375 0.160156 7.375 0.171875 Z M 7.046875 0.171875 "/></g></g></g><g fill="#000000" fill-opacity="1"><g transform="translate(56.011229, 18.362052)"><g><path d="M 9.5625 -13.9375 L 12.171875 -13.9375 L 12.171875 0.125 L 9.5625 0.125 L 9.5625 -4.90625 L 3.859375 -4.90625 L 3.859375 0.125 L 1.234375 0.125 L 1.234375 -13.9375 L 3.859375 -13.9375 L 3.859375 -7.53125 L 9.5625 -7.53125 Z M 9.5625 -13.9375 "/></g></g></g><g fill="#000000" fill-opacity="1"><g transform="translate(69.415091, 18.362052)"><g><path d="M 3.859375 -0.046875 L 3.859375 -14.03125 L 1.234375 -14.03125 L 1.234375 -0.046875 Z M 3.859375 -0.046875 "/></g></g></g><g fill="#000000" fill-opacity="1"><g transform="translate(74.502944, 18.362052)"><g><path d="M 5.828125 -14.03125 C 6.722656 -14.03125 7.550781 -13.847656 8.3125 -13.484375 C 9.082031 -13.128906 9.753906 -12.628906 10.328125 -11.984375 C 10.898438 -11.335938 11.347656 -10.585938 11.671875 -9.734375 C 11.992188 -8.890625 12.15625 -7.984375 12.15625 -7.015625 C 12.15625 -6.046875 12 -5.132812 11.6875 -4.28125 C 11.382812 -3.4375 10.945312 -2.691406 10.375 -2.046875 C 9.8125 -1.410156 9.144531 -0.910156 8.375 -0.546875 C 7.601562 -0.179688 6.753906 0 5.828125 0 L 1.234375 0 L 1.234375 -14.03125 Z M 5.828125 -11.421875 L 3.84375 -11.421875 L 3.84375 -2.609375 L 5.828125 -2.609375 C 6.484375 -2.609375 7.019531 -2.738281 7.4375 -3 C 7.863281 -3.257812 8.191406 -3.523438 8.421875 -3.796875 C 8.796875 -4.203125 9.078125 -4.679688 9.265625 -5.234375 C 9.453125 -5.796875 9.546875 -6.390625 9.546875 -7.015625 C 9.546875 -7.847656 9.378906 -8.59375 9.046875 -9.25 C 8.722656 -9.914062 8.28125 -10.441406 7.71875 -10.828125 C 7.15625 -11.222656 6.523438 -11.421875 5.828125 -11.421875 Z M 5.828125 -11.421875 "/></g></g></g><g fill="#000000" fill-opacity="1"><g transform="translate(87.889262, 18.362052)"><g><path d="M 1.453125 -9.515625 C 1.722656 -10.460938 1.957031 -11.320312 2.15625 -12.09375 C 2.363281 -12.875 2.535156 -13.519531 2.671875 -14.03125 L 1.015625 -14.03125 C 1.015625 -14.03125 0.984375 -13.910156 0.921875 -13.671875 C 0.867188 -13.429688 0.796875 -13.117188 0.703125 -12.734375 C 0.617188 -12.359375 0.53125 -11.960938 0.4375 -11.546875 C 0.34375 -11.128906 0.253906 -10.738281 0.171875 -10.375 C 0.0859375 -10.007812 0.03125 -9.722656 0 -9.515625 Z M 1.453125 -9.515625 "/></g></g></g><g fill="#000000" fill-opacity="1"><g transform="translate(90.555999, 18.362052)"><g><path d="M 7.046875 0.171875 C 6.765625 0.171875 6.367188 0.140625 5.859375 0.078125 C 5.347656 0.0234375 4.796875 -0.0976562 4.203125 -0.296875 C 3.609375 -0.503906 3.046875 -0.828125 2.515625 -1.265625 C 2.003906 -1.679688 1.578125 -2.148438 1.234375 -2.671875 L 3.375 -4.125 C 3.488281 -3.957031 3.601562 -3.800781 3.71875 -3.65625 C 3.84375 -3.519531 3.984375 -3.394531 4.140625 -3.28125 C 4.429688 -3.03125 4.753906 -2.847656 5.109375 -2.734375 C 5.472656 -2.617188 5.8125 -2.535156 6.125 -2.484375 C 6.445312 -2.441406 6.710938 -2.421875 6.921875 -2.421875 C 7.140625 -2.421875 7.25 -2.421875 7.25 -2.421875 L 7.328125 -2.421875 C 8.054688 -2.421875 8.617188 -2.578125 9.015625 -2.890625 C 9.410156 -3.210938 9.625 -3.5625 9.65625 -3.9375 C 9.675781 -4.34375 9.457031 -4.75 9 -5.15625 C 8.550781 -5.5625 7.816406 -5.835938 6.796875 -5.984375 C 5.242188 -6.148438 4.015625 -6.65625 3.109375 -7.5 C 2.648438 -7.914062 2.304688 -8.390625 2.078125 -8.921875 C 1.847656 -9.453125 1.757812 -10 1.8125 -10.5625 C 1.863281 -11.207031 2.097656 -11.816406 2.515625 -12.390625 C 2.941406 -12.972656 3.566406 -13.4375 4.390625 -13.78125 C 5.210938 -14.125 6.25 -14.265625 7.5 -14.203125 C 8.050781 -14.203125 8.601562 -14.128906 9.15625 -13.984375 C 9.71875 -13.847656 10.238281 -13.664062 10.71875 -13.4375 C 11.195312 -13.21875 11.601562 -12.984375 11.9375 -12.734375 L 10.421875 -10.640625 C 10.210938 -10.796875 9.941406 -10.945312 9.609375 -11.09375 C 9.273438 -11.238281 8.921875 -11.359375 8.546875 -11.453125 C 8.171875 -11.554688 7.804688 -11.609375 7.453125 -11.609375 L 7.40625 -11.609375 C 6.445312 -11.660156 5.707031 -11.550781 5.1875 -11.28125 C 4.675781 -11.007812 4.410156 -10.703125 4.390625 -10.359375 C 4.367188 -10.023438 4.488281 -9.734375 4.75 -9.484375 C 5.007812 -9.234375 5.347656 -9.03125 5.765625 -8.875 C 6.191406 -8.71875 6.628906 -8.609375 7.078125 -8.546875 L 7.109375 -8.546875 C 8.347656 -8.390625 9.351562 -8.0625 10.125 -7.5625 C 10.894531 -7.0625 11.445312 -6.46875 11.78125 -5.78125 C 12.125 -5.101562 12.273438 -4.425781 12.234375 -3.75 C 12.191406 -3.113281 11.972656 -2.492188 11.578125 -1.890625 C 11.191406 -1.285156 10.644531 -0.789062 9.9375 -0.40625 C 9.226562 -0.03125 8.375 0.160156 7.375 0.171875 Z M 7.046875 0.171875 "/></g></g></g><g fill="#000000" fill-opacity="1"><g transform="translate(104.012494, 18.362052)"><g/></g></g><g fill="#000000" fill-opacity="1"><g transform="translate(109.27579, 18.362052)"><g><path d="M 11.515625 -3.90625 L 13.5 -1.953125 C 12.851562 -1.304688 12.085938 -0.789062 11.203125 -0.40625 C 10.328125 -0.03125 9.394531 0.15625 8.40625 0.15625 C 7.40625 0.15625 6.472656 -0.03125 5.609375 -0.40625 C 4.742188 -0.78125 3.984375 -1.296875 3.328125 -1.953125 C 2.671875 -2.609375 2.15625 -3.367188 1.78125 -4.234375 C 1.414062 -5.097656 1.234375 -6.023438 1.234375 -7.015625 C 1.234375 -8.015625 1.414062 -8.945312 1.78125 -9.8125 C 2.15625 -10.675781 2.671875 -11.4375 3.328125 -12.09375 C 3.984375 -12.75 4.742188 -13.265625 5.609375 -13.640625 C 6.472656 -14.015625 7.40625 -14.203125 8.40625 -14.203125 C 9.394531 -14.203125 10.328125 -14.015625 11.203125 -13.640625 C 12.085938 -13.265625 12.851562 -12.75 13.5 -12.09375 L 11.515625 -10.125 C 11.148438 -10.5625 10.703125 -10.898438 10.171875 -11.140625 C 9.640625 -11.390625 9.050781 -11.515625 8.40625 -11.515625 C 7.582031 -11.515625 6.851562 -11.3125 6.21875 -10.90625 C 5.582031 -10.5 5.082031 -9.957031 4.71875 -9.28125 C 4.351562 -8.601562 4.171875 -7.847656 4.171875 -7.015625 C 4.171875 -6.203125 4.351562 -5.453125 4.71875 -4.765625 C 5.082031 -4.078125 5.582031 -3.53125 6.21875 -3.125 C 6.851562 -2.726562 7.582031 -2.53125 8.40625 -2.53125 C 9.050781 -2.53125 9.640625 -2.648438 10.171875 -2.890625 C 10.703125 -3.140625 11.148438 -3.476562 11.515625 -3.90625 Z M 11.515625 -3.90625 "/></g></g></g><g fill="#000000" fill-opacity="1"><g transform="translate(123.995477, 18.362052)"><g><path d="M 9.515625 0 L 8.46875 -3.484375 L 5.015625 -3.484375 L 3.984375 0 L 1.234375 0 L 5.375 -14.03125 L 8.125 -14.03125 L 8.125 -14 L 12.25 0 Z M 5.796875 -6.109375 L 7.703125 -6.109375 L 6.75 -9.375 Z M 5.796875 -6.109375 "/></g></g></g><g fill="#000000" fill-opacity="1"><g transform="translate(137.469516, 18.362052)"><g><path d="M 9.953125 -11.40625 L 3.859375 -11.40625 L 3.859375 -7.59375 L 7.71875 -7.59375 L 7.71875 -4.96875 L 3.859375 -4.96875 L 3.859375 0 L 1.234375 0 L 1.234375 -14.03125 L 9.953125 -14.03125 Z M 9.953125 -11.40625 "/></g></g></g><g fill="#000000" fill-opacity="1"><g transform="translate(148.101375, 18.362052)"><g><path d="M 9.375 -11.4375 L 3.859375 -11.4375 L 3.859375 -8.359375 L 7.140625 -8.359375 L 7.140625 -5.734375 L 3.859375 -5.734375 L 3.859375 -2.609375 L 9.375 -2.609375 L 9.375 0 L 1.234375 0 L 1.234375 -14.0625 L 9.375 -14.0625 Z M 9.375 -11.4375 "/></g></g></g></g></g></g></g></g></svg>