<svg xmlns="http://www.w3.org/2000/svg" xmlns:xlink="http://www.w3.org/1999/xlink" width="53" zoomAndPan="magnify" viewBox="0 0 39.75 59.249999" height="79" preserveAspectRatio="xMidYMid meet" version="1.2"><defs><clipPath id="c668b31506"><path d="M 2 14 L 37 14 L 37 57.769531 L 2 57.769531 Z M 2 14 "/></clipPath><clipPath id="c366061a10"><path d="M 0.152344 9.5 L 38.605469 9.5 L 38.605469 21.308594 L 0.152344 21.308594 Z M 0.152344 9.5 "/></clipPath><clipPath id="49b5255ec1"><path d="M 0.152344 13.734375 L 38.605469 13.734375 L 38.605469 15.789062 L 0.152344 15.789062 Z M 0.152344 13.734375 "/></clipPath><clipPath id="d36f166066"><path d="M 0.152344 7.832031 L 38.605469 7.832031 L 38.605469 19.640625 L 0.152344 19.640625 Z M 0.152344 7.832031 "/></clipPath><clipPath id="ee8bc25c58"><path d="M 12.050781 31.445312 L 23.902344 31.445312 L 23.902344 43.296875 L 12.050781 43.296875 Z M 12.050781 31.445312 "/></clipPath></defs><g id="6f604302f4"><g clip-rule="nonzero" clip-path="url(#c668b31506)"><path style=" stroke:none;fill-rule:nonzero;fill:#e6d19b;fill-opacity:1;" d="M 19.378906 14.21875 L 2.058594 14.21875 L 6.640625 53.945312 C 6.640625 56.054688 12.34375 57.769531 19.378906 57.769531 C 26.414062 57.769531 32.117188 56.054688 32.117188 53.945312 L 36.699219 14.21875 L 19.378906 14.21875 "/></g><path style=" stroke:none;fill-rule:nonzero;fill:#c19e78;fill-opacity:1;" d="M 19.378906 14.21875 L 2.058594 14.21875 L 2.714844 19.910156 C 3.414062 20.082031 4.109375 20.25 4.78125 20.453125 C 8.058594 21.449219 11.371094 22.039062 14.792969 22.238281 C 18.824219 22.472656 22.867188 22.246094 26.886719 21.90625 C 29.363281 21.695312 31.855469 21.4375 34.226562 20.699219 C 34.839844 20.507812 35.441406 20.28125 36.03125 20.019531 L 36.699219 14.21875 L 19.378906 14.21875 "/><path style=" stroke:none;fill-rule:nonzero;fill:#f7ebcb;fill-opacity:1;" d="M 29.757812 38.382812 C 29.878906 35.675781 29.847656 32.96875 29.839844 30.257812 C 29.835938 29.769531 29.78125 23.339844 29.835938 23.332031 C 23.183594 24.710938 15.707031 24.152344 9.019531 23.253906 C 8.207031 23.144531 7.382812 23.023438 6.59375 22.796875 C 5.820312 22.574219 4.984375 21.949219 4.25 21.882812 C 4.683594 26.078125 5.574219 30.175781 5.8125 34.433594 C 6.054688 38.710938 6.195312 43.007812 6.910156 47.242188 C 7.027344 47.933594 7.164062 48.636719 7.496094 49.257812 C 7.921875 50.050781 8.648438 50.652344 9.429688 51.101562 C 11.542969 52.3125 14.082031 52.515625 16.515625 52.460938 C 20 52.382812 23.515625 51.820312 26.683594 50.359375 C 28.472656 49.539062 28.523438 47.667969 28.882812 45.933594 C 29.394531 43.449219 29.640625 40.914062 29.757812 38.382812 "/><path style=" stroke:none;fill-rule:nonzero;fill:#faf3e5;fill-opacity:1;" d="M 14 25.816406 C 14.328125 29.886719 14.652344 33.957031 14.976562 38.027344 C 15.183594 40.609375 15.386719 43.222656 14.9375 45.773438 C 14.738281 46.929688 14.375 48.105469 13.578125 48.960938 C 12.78125 49.820312 11.453125 50.265625 10.402344 49.753906 C 9.261719 49.199219 8.839844 47.8125 8.558594 46.574219 C 7.726562 42.882812 7.101562 39.144531 6.695312 35.382812 C 6.320312 31.957031 5.394531 28.128906 5.929688 24.695312 C 7.390625 25.53125 8.335938 25.875 10.035156 25.976562 C 10.363281 25.996094 14.039062 26.296875 14 25.816406 "/><g clip-rule="nonzero" clip-path="url(#c366061a10)"><path style=" stroke:none;fill-rule:nonzero;fill:#4f1c1d;fill-opacity:1;" d="M 38.605469 15.386719 C 38.605469 18.621094 30 21.246094 19.378906 21.246094 C 8.761719 21.246094 0.152344 18.621094 0.152344 15.386719 C 0.152344 12.148438 8.761719 9.523438 19.378906 9.523438 C 30 9.523438 38.605469 12.148438 38.605469 15.386719 "/></g><g clip-rule="nonzero" clip-path="url(#49b5255ec1)"><path style=" stroke:none;fill-rule:nonzero;fill:#4f1c1d;fill-opacity:1;" d="M 38.570312 15.734375 L 0.152344 15.734375 L 0.152344 13.738281 L 38.570312 13.738281 L 38.570312 15.734375 "/></g><g clip-rule="nonzero" clip-path="url(#d36f166066)"><path style=" stroke:none;fill-rule:nonzero;fill:#683019;fill-opacity:1;" d="M 38.605469 13.738281 C 38.605469 16.976562 30 19.597656 19.378906 19.597656 C 8.761719 19.597656 0.152344 16.976562 0.152344 13.738281 C 0.152344 10.5 8.761719 7.878906 19.378906 7.878906 C 30 7.878906 38.605469 10.5 38.605469 13.738281 "/></g><path style=" stroke:none;fill-rule:nonzero;fill:#4f1c1d;fill-opacity:1;" d="M 35.878906 9.925781 C 33.304688 7.742188 26.890625 6.191406 19.378906 6.191406 C 11.871094 6.191406 5.453125 7.742188 2.882812 9.925781 L 1.679688 9.925781 L 1.679688 12.324219 L 1.699219 12.324219 C 2.125 15.433594 9.875 17.914062 19.378906 17.914062 C 28.882812 17.914062 36.636719 15.433594 37.0625 12.324219 L 37.082031 12.324219 L 37.082031 9.925781 L 35.878906 9.925781 "/><path style=" stroke:none;fill-rule:nonzero;fill:#3a1416;fill-opacity:1;" d="M 28.746094 7.082031 C 28.726562 7.089844 28.707031 7.105469 28.6875 7.117188 C 26.875 8.234375 24.347656 9.761719 23.132812 11.542969 C 22.1875 12.933594 23.230469 14.171875 23.128906 15.625 C 22.980469 17.835938 19.835938 17.585938 18.292969 17.613281 C 16.574219 17.648438 14.695312 17.667969 12.871094 17.503906 C 14.886719 17.769531 17.082031 17.914062 19.378906 17.914062 C 28.882812 17.914062 36.636719 15.433594 37.0625 12.324219 L 37.082031 12.324219 L 37.082031 9.925781 L 35.878906 9.925781 C 34.484375 8.742188 31.960938 7.746094 28.746094 7.082031 "/><path style=" stroke:none;fill-rule:nonzero;fill:#683019;fill-opacity:1;" d="M 37.082031 9.523438 C 37.082031 12.761719 29.15625 15.386719 19.378906 15.386719 C 9.601562 15.386719 1.679688 12.761719 1.679688 9.523438 C 1.679688 6.289062 9.601562 3.664062 19.378906 3.664062 C 29.15625 3.664062 37.082031 6.289062 37.082031 9.523438 "/><path style=" stroke:none;fill-rule:nonzero;fill:#4f1c1d;fill-opacity:1;" d="M 30.816406 4.917969 C 27.863281 3.964844 23.828125 3.375 19.378906 3.375 C 14.929688 3.375 10.894531 3.964844 7.945312 4.917969 L 3.003906 4.917969 L 3.003906 9.597656 L 3.304688 9.835938 C 4.472656 12.449219 11.15625 14.21875 19.378906 14.21875 C 27.601562 14.21875 34.410156 12.214844 35.578125 9.597656 L 35.757812 9.597656 L 35.757812 4.917969 L 30.816406 4.917969 "/><path style=" stroke:none;fill-rule:nonzero;fill:#3a1416;fill-opacity:1;" d="M 23.765625 3.574219 C 23.453125 5.152344 23.503906 6.992188 24.636719 8.058594 C 25.894531 9.242188 26.96875 10.914062 25.085938 12.28125 C 24.476562 12.722656 23.730469 12.933594 22.992188 13.082031 C 21.351562 13.410156 19.421875 13.421875 17.738281 13.417969 C 15.734375 13.417969 13.742188 13.128906 11.769531 12.792969 C 9.75 12.445312 7.6875 12.023438 5.957031 10.917969 C 4.984375 10.300781 4.117188 9.46875 3.011719 9.140625 C 2.839844 11.257812 7.058594 12.550781 8.507812 12.957031 C 12.023438 13.941406 15.746094 14.21875 19.378906 14.21875 C 27.601562 14.21875 34.410156 12.214844 35.578125 9.597656 L 35.757812 9.597656 L 35.757812 4.917969 L 30.816406 4.917969 C 28.871094 4.289062 26.457031 3.820312 23.765625 3.574219 "/><path style=" stroke:none;fill-rule:nonzero;fill:#683019;fill-opacity:1;" d="M 35.757812 4.917969 C 35.757812 7.632812 28.421875 9.835938 19.378906 9.835938 C 10.335938 9.835938 3.003906 7.632812 3.003906 4.917969 C 3.003906 2.203125 10.335938 0 19.378906 0 C 28.421875 0 35.757812 2.203125 35.757812 4.917969 "/><path style=" stroke:none;fill-rule:nonzero;fill:#ac642b;fill-opacity:1;" d="M 30.308594 4.917969 C 30.308594 6.386719 25.414062 7.574219 19.378906 7.574219 C 13.34375 7.574219 8.449219 6.386719 8.449219 4.917969 C 8.449219 3.449219 13.34375 2.257812 19.378906 2.257812 C 25.414062 2.257812 30.308594 3.449219 30.308594 4.917969 "/><path style=" stroke:none;fill-rule:nonzero;fill:#79391a;fill-opacity:1;" d="M 19.378906 3.535156 C 14.246094 3.535156 9.941406 4.394531 8.769531 5.554688 C 9.941406 6.714844 14.246094 7.574219 19.378906 7.574219 C 24.511719 7.574219 28.816406 6.714844 29.992188 5.554688 C 28.816406 4.394531 24.511719 3.535156 19.378906 3.535156 "/><path style=" stroke:none;fill-rule:nonzero;fill:#683019;fill-opacity:1;" d="M 4.027344 9 C 3.785156 8.707031 3.578125 8.265625 3.824219 7.980469 C 4.003906 7.773438 4.320312 7.777344 4.585938 7.824219 C 5.652344 8.011719 6.59375 8.609375 7.566406 9.085938 C 9.160156 9.867188 10.902344 10.339844 12.671875 10.476562 C 14.132812 10.589844 15.675781 10.488281 16.972656 11.171875 C 17.128906 11.253906 17.292969 11.359375 17.351562 11.527344 C 17.433594 11.761719 17.277344 12.027344 17.058594 12.144531 C 16.84375 12.261719 16.585938 12.273438 16.339844 12.273438 C 13.980469 12.292969 11.617188 11.957031 9.355469 11.277344 C 7.539062 10.734375 5.324219 10.535156 4.027344 9 "/><path style=" stroke:none;fill-rule:nonzero;fill:#3a1416;fill-opacity:1;" d="M 6.597656 5.160156 C 6.734375 5.9375 7.347656 6.636719 8.125 6.769531 C 8.316406 6.804688 8.535156 6.816406 8.660156 6.964844 C 8.035156 7.238281 7.320312 7.160156 6.652344 7.039062 C 5.835938 6.890625 4.949219 6.632812 4.511719 5.921875 C 4.402344 5.746094 4.328125 5.542969 4.347656 5.335938 C 4.378906 5.035156 4.605469 4.796875 4.820312 4.582031 C 5.453125 3.949219 6.367188 2.871094 7.285156 2.71875 C 7.167969 3.601562 6.417969 4.132812 6.597656 5.160156 "/><path style=" stroke:none;fill-rule:nonzero;fill:#211914;fill-opacity:1;" d="M 5.824219 5.664062 C 6.082031 5.304688 6.082031 4.832031 6.175781 4.398438 C 6.273438 3.9375 6.492188 3.5 6.792969 3.136719 C 6.863281 3.054688 7.074219 2.914062 7.273438 2.769531 C 7.277344 2.753906 7.28125 2.738281 7.285156 2.71875 C 6.367188 2.871094 5.453125 3.949219 4.820312 4.582031 C 4.605469 4.796875 4.378906 5.035156 4.347656 5.335938 C 4.328125 5.542969 4.402344 5.746094 4.511719 5.921875 C 4.527344 5.949219 4.542969 5.972656 4.5625 5.996094 C 4.992188 6.167969 5.550781 6.050781 5.824219 5.664062 "/><path style=" stroke:none;fill-rule:nonzero;fill:#3a1416;fill-opacity:1;" d="M 3.308594 26.664062 C 3.308594 26.664062 14.78125 33.308594 35.21875 27.070312 L 35.757812 27.070312 L 33.867188 43.273438 C 33.867188 43.273438 20.285156 52.230469 5.035156 43.78125 C 5.035156 43.78125 3.003906 31.105469 3.308594 26.664062 "/><path style=" stroke:none;fill-rule:nonzero;fill:#683019;fill-opacity:1;" d="M 5.003906 27.441406 C 5.347656 29.75 5.683594 32.066406 5.8125 34.433594 C 6.003906 37.808594 6.132812 41.195312 6.53125 44.554688 C 15.597656 48.953125 23.921875 47.410156 28.945312 45.597656 C 29.414062 43.21875 29.648438 40.800781 29.757812 38.382812 C 29.878906 35.675781 29.847656 32.96875 29.839844 30.257812 C 29.839844 30.109375 29.832031 29.394531 29.828125 28.476562 C 16.972656 31.242188 8.429688 28.808594 5.003906 27.441406 "/><path style=" stroke:none;fill-rule:nonzero;fill:#79391a;fill-opacity:1;" d="M 14.9375 45.773438 C 15.386719 43.222656 15.183594 40.609375 14.976562 38.027344 C 14.75 35.199219 14.523438 32.375 14.300781 29.546875 C 10.496094 29.191406 7.632812 28.402344 5.785156 27.738281 C 5.882812 30.296875 6.429688 32.941406 6.695312 35.382812 C 7.058594 38.726562 7.589844 42.050781 8.289062 45.339844 C 10.464844 46.226562 12.589844 46.78125 14.621094 47.09375 C 14.761719 46.664062 14.863281 46.21875 14.9375 45.773438 "/><g clip-rule="nonzero" clip-path="url(#ee8bc25c58)"><path style="fill-rule:nonzero;fill:#ffffff;fill-opacity:1;stroke-width:1;stroke-linecap:butt;stroke-linejoin:miter;stroke:#000000;stroke-opacity:1;stroke-miterlimit:10;" d="M 1459.311599 147.789577 C 1449.623438 242.500506 1433.153566 336.259566 1416.683693 430.018626 C 1402.635861 509.499657 1388.10362 588.980688 1374.540196 668.937653 C 1356.132691 777.450678 1340.147227 886.915571 1327.552618 996.380463 C 1317.864458 1077.765232 1310.598338 1159.625934 1309.629522 1241.486637 C 1309.145114 1276.229842 1309.629522 1310.973047 1316.895642 1344.764383 C 1319.317682 1355.710873 1322.708538 1366.181428 1326.099394 1376.651983 C 1330.459067 1389.026275 1340.147227 1394.737487 1352.257427 1397.117158 C 1355.163875 1397.593093 1358.554731 1397.117158 1363.398812 1397.117158 C 1360.976772 1399.972764 1359.523547 1402.82837 1357.585915 1403.780239 C 1344.022491 1412.822991 1329.974659 1421.389808 1315.926826 1429.956626 C 1312.051562 1432.336298 1307.69189 1433.764101 1303.332218 1435.667838 C 1295.581689 1439.475312 1287.831161 1438.999378 1279.111817 1436.619707 C 1266.517208 1432.812232 1259.735496 1423.293546 1255.375824 1411.395188 C 1248.109704 1391.881881 1244.718848 1371.892639 1242.781216 1350.951529 C 1238.421544 1305.261835 1238.905952 1259.572141 1242.296808 1213.882446 C 1246.172072 1160.577803 1250.531744 1107.273159 1255.860232 1053.968516 C 1261.18872 1003.519478 1267.486025 953.070441 1274.752145 902.621403 C 1285.893529 825.995978 1298.003729 749.370553 1310.598338 672.745128 C 1319.317682 621.820156 1329.005843 571.371119 1337.725187 520.446147 C 1351.288611 440.489181 1365.336444 360.532216 1377.931052 280.575251 C 1385.197172 232.981819 1391.978885 184.912453 1393.916517 136.843087 C 1394.400925 115.901977 1392.947701 94.484933 1391.978885 73.067889 C 1391.978885 71.164152 1391.494477 69.736349 1391.010069 66.404808 C 1389.072436 68.78448 1388.10362 70.212283 1387.134804 71.640086 C 1369.211708 104.479554 1353.710651 138.746825 1339.662819 173.49003 C 1282.502673 316.746259 1225.342527 460.002488 1168.182381 603.258718 C 1129.914148 699.873384 1094.067955 797.915853 1059.190578 895.958323 C 1034.001361 965.444733 1008.812144 1035.407077 983.622927 1104.893488 C 981.200887 1112.032502 980.232071 1119.171517 977.325623 1125.834598 C 975.387991 1130.118006 972.965951 1134.87735 969.575095 1137.732956 C 952.620814 1151.535051 933.728902 1162.005606 913.383765 1170.096489 C 905.148829 1173.428029 902.726789 1172.000226 901.273565 1163.433409 C 899.335933 1145.347905 896.913892 1127.738335 895.945076 1110.128765 C 893.038628 1047.305435 893.523036 984.95804 895.945076 922.13471 C 898.367117 860.263249 902.726789 798.391788 906.602053 736.520326 C 909.024093 691.306566 912.414949 646.092806 915.805805 601.354981 C 919.196661 554.713417 922.587517 508.071854 925.978373 461.906226 C 929.36923 416.216531 932.760086 370.526837 935.666534 325.313077 C 938.088574 291.52174 940.026206 257.730404 941.963838 223.939067 C 942.448246 222.511264 941.963838 220.607527 941.47943 218.70379 C 940.510614 221.559396 939.541798 223.939067 938.572982 226.794673 C 921.134293 282.954923 903.695605 339.115172 886.256916 395.275421 C 865.427371 463.334029 846.051051 531.392636 824.25269 598.975309 C 796.641433 684.643486 764.670504 768.88386 728.824311 851.696431 C 688.134038 943.07582 641.14646 1030.647734 583.986314 1112.984371 C 553.953017 1156.294394 520.528864 1196.272877 481.776223 1232.443885 C 449.805294 1261.475878 414.443509 1285.748528 376.659684 1306.213704 C 350.017243 1320.491733 322.405986 1332.866025 293.341505 1340.480975 C 270.574328 1346.668121 247.322743 1349.047792 224.071159 1346.668121 C 189.67819 1343.33658 159.160485 1330.01042 132.033636 1309.06931 C 94.24981 1280.037316 68.091778 1242.438505 48.715457 1199.604417 C 12.384856 1122.027123 -3.116201 1040.166421 0.274655 954.498244 C 3.181103 894.53052 16.26012 837.418402 44.840193 783.637824 C 73.420266 729.381312 115.563763 688.926895 168.848645 658.467099 C 196.459902 642.761266 224.555567 628.483237 255.073272 619.916419 C 299.638809 607.066192 343.719939 609.921798 387.801068 621.820156 C 428.975749 632.766645 468.212799 649.900281 506.481032 667.985785 C 519.560048 674.172931 533.123473 680.360077 546.202489 686.547223 C 550.077753 688.45096 554.437425 690.830632 558.312689 693.210304 C 561.703546 694.638107 562.187954 697.493713 558.797097 699.39745 C 551.046569 705.108662 543.780449 710.819873 535.545513 715.579217 C 526.34176 721.290428 516.6536 726.049772 506.96544 730.809115 C 501.636952 733.188786 496.308463 733.188786 490.979975 730.809115 C 467.728391 720.814494 444.476806 710.819873 421.709629 700.349318 C 386.832252 684.643486 350.986059 670.365456 313.686642 660.84677 C 288.497425 654.659624 262.8238 651.804018 236.665767 653.707755 C 219.711486 654.659624 203.241614 658.467099 186.771741 664.17831 C 176.114765 668.461719 168.364237 676.552603 160.613709 684.643486 C 126.705147 718.434822 104.422379 759.365174 89.890138 804.102999 C 72.45145 855.97984 67.60737 909.760418 70.02941 964.01693 C 72.935858 1028.743997 86.98369 1091.091393 113.141723 1151.059116 C 130.580412 1191.989468 153.831996 1229.112344 187.740557 1259.096206 C 213.414182 1281.941054 242.963071 1298.12282 277.840448 1303.358098 C 317.561906 1309.545244 356.314547 1304.309966 390.707516 1281.941054 C 412.990285 1267.663024 431.397789 1248.625651 449.320886 1229.112344 C 495.824055 1179.615175 533.607881 1122.978992 568.00085 1064.915005 C 624.676588 969.728142 669.726533 869.306001 708.479174 766.028254 C 742.387735 677.504471 770.4834 587.552885 797.610249 496.649431 C 820.861834 419.072137 844.113419 341.018909 868.818228 263.91755 C 878.02198 234.885557 891.100996 207.281366 902.726789 178.725307 C 916.774621 143.982102 941.47943 119.709452 975.387991 104.003619 C 984.591743 99.720211 993.311088 95.912736 1002.999248 92.581196 C 1009.78096 90.201524 1013.171816 93.05713 1014.62504 100.196145 C 1015.109448 105.907357 1015.593856 111.618568 1015.109448 117.32978 C 1013.656224 148.741445 1011.718592 180.629044 1009.78096 211.564775 C 1006.390104 266.297221 1002.999248 321.029668 999.123984 375.28618 C 993.795496 449.531933 987.982599 524.253621 982.654111 598.499375 C 976.356807 690.830632 967.637463 783.16189 965.215423 875.493147 C 964.246607 915.47163 964.246607 955.450112 963.762199 995.428595 C 963.762199 997.332332 963.762199 999.712004 963.762199 1001.615741 C 964.246607 1001.615741 964.731015 1001.615741 965.215423 1001.615741 C 968.606279 991.62112 972.481543 981.150565 975.872399 971.155945 C 1012.203 867.878198 1049.502417 765.076385 1089.708283 663.226442 C 1120.225988 586.125082 1151.228101 508.547789 1182.230214 431.446429 C 1209.357063 362.911888 1235.999503 294.377346 1263.61076 226.318739 C 1279.596225 186.340256 1295.581689 146.361774 1316.895642 109.238897 C 1328.037026 90.201524 1340.147227 72.11602 1352.741835 54.030516 C 1361.46118 41.18029 1374.540196 31.661603 1388.10362 24.046654 C 1402.635861 15.955771 1417.652509 8.340822 1433.153566 1.677741 C 1442.357318 -2.605668 1446.71699 -0.225996 1452.529887 8.340822 C 1459.796007 19.763245 1461.733639 33.089406 1462.702455 46.415567 C 1465.608903 80.682838 1463.186863 113.99824 1459.311599 147.789577 Z M 1459.311599 147.789577 " transform="matrix(0.00806397,0,0,0.00820754,12.079816,31.474511)"/></g></g></svg>